<svg width="290" height="290" viewBox="0 0 290 290" fill="none" xmlns="http://www.w3.org/2000/svg">
<g clip-path="url(#clip0_42_1350)">
<path d="M274.515 259.345H80.2427V16.554H274.515C281.512 16.554 287.184 21.3368 287.184 27.4317V248.151C287.184 254.245 281.512 259.345 274.515 259.345Z" fill="#D9D9D9" fill-opacity="0.57" stroke="#D9D9D9" stroke-opacity="0.57" stroke-width="8" stroke-miterlimit="10" stroke-linecap="round" stroke-linejoin="round"/>
<path d="M247.063 264.249H237.209C236.275 264.249 235.38 263.927 234.72 263.352C234.06 262.777 233.689 261.997 233.689 261.184V14.7146C233.689 13.9016 234.06 13.1218 234.72 12.5469C235.38 11.972 236.275 11.649 237.209 11.649H247.063C247.997 11.649 248.892 11.972 249.552 12.5469C250.212 13.1218 250.583 13.9016 250.583 14.7146V261.184C250.583 261.997 250.212 262.777 249.552 263.352C248.892 263.927 247.997 264.249 247.063 264.249ZM123.18 287.389L102.063 277.125V259.345H123.18V287.389Z" fill="#D9D9D9" fill-opacity="0.57" stroke="#D9D9D9" stroke-opacity="0.57" stroke-width="8" stroke-miterlimit="10" stroke-linecap="round" stroke-linejoin="round"/>
<path d="M267.476 250.148H73.2039V7.3573H267.476C274.473 7.3573 280.146 12.1402 280.146 18.2351V238.954C280.146 245.049 274.473 250.148 267.476 250.148Z" fill="#4C5B60"/>
<path d="M234.393 7.3573H251.286V250.148H234.393V7.3573Z" fill="#526770"/>
<path d="M73.2039 7.3573H97.1359V250.148H73.2039V7.3573Z" stroke="#102D3B" stroke-width="8" stroke-miterlimit="10" stroke-linecap="round" stroke-linejoin="round"/>
<path opacity="0.37" d="M73.2039 7.3573H85.1699V250.148H73.2039V7.3573Z" fill="#526770"/>
<path d="M73.2039 77.2516H280.146V145.92H73.2039V77.2516Z" fill="#B378E1"/>
<path d="M97.1359 77.2516V145.92" stroke="#3D0767" stroke-width="8" stroke-miterlimit="10"/>
<path opacity="0.51" d="M73.2039 77.2516H85.1699V145.92H73.2039V77.2516Z" fill="#526770"/>
<path opacity="0.61" d="M239.32 77.2516H251.286V145.92H239.32V77.2516Z" fill="#3D0767"/>
<path d="M73.2039 77.2516H280.146V145.92H73.2039V77.2516Z" stroke="#102D3B" stroke-width="8" stroke-miterlimit="10" stroke-linecap="round" stroke-linejoin="round"/>
<path d="M267.476 250.148H73.2039V7.3573H267.476C274.473 7.3573 280.146 12.1402 280.146 18.2351V238.954C280.146 245.049 274.473 250.148 267.476 250.148Z" stroke="#102D3B" stroke-width="8" stroke-miterlimit="10" stroke-linecap="round" stroke-linejoin="round"/>
<path d="M239.438 255.053H230.757C229.668 255.053 228.624 254.676 227.854 254.005C227.084 253.335 226.651 252.425 226.651 251.477V6.02866C226.651 5.55901 226.757 5.09396 226.964 4.66007C227.17 4.22618 227.472 3.83193 227.854 3.49985C228.235 3.16776 228.688 2.90434 229.186 2.72461C229.684 2.54489 230.218 2.45239 230.757 2.45239H239.438C239.977 2.45239 240.511 2.54489 241.009 2.72461C241.507 2.90434 241.96 3.16776 242.341 3.49985C242.722 3.83193 243.025 4.22618 243.231 4.66007C243.437 5.09396 243.544 5.55901 243.544 6.02866V251.476C243.544 252.424 243.111 253.334 242.341 254.005C241.571 254.676 240.527 255.053 239.438 255.053Z" fill="#B7C8CE"/>
<path d="M239.438 255.053H230.757C229.668 255.053 228.624 254.676 227.854 254.005C227.084 253.335 226.651 252.425 226.651 251.477V6.02866C226.651 5.55901 226.757 5.09396 226.964 4.66007C227.17 4.22618 227.472 3.83193 227.854 3.49985C228.235 3.16776 228.688 2.90434 229.186 2.72461C229.684 2.54489 230.218 2.45239 230.757 2.45239H239.438C239.977 2.45239 240.511 2.54489 241.009 2.72461C241.507 2.90434 241.96 3.16776 242.341 3.49985C242.722 3.83193 243.025 4.22618 243.231 4.66007C243.437 5.09396 243.544 5.55901 243.544 6.02866V251.476C243.544 252.424 243.111 253.334 242.341 254.005C241.571 254.676 240.527 255.053 239.438 255.053V255.053Z" stroke="#102D3B" stroke-width="8" stroke-miterlimit="10" stroke-linecap="round" stroke-linejoin="round"/>
<path d="M116.141 278.193L95.0243 267.928V250.148H116.141V278.193Z" fill="#EA3939"/>
<path opacity="0.62" d="M95.0243 250.148H116.141V257.096H95.0243V250.148Z" fill="#EA3939"/>
<path d="M116.141 278.193L95.0243 267.928V250.148H116.141V278.193Z" stroke="#102D3B" stroke-width="8" stroke-miterlimit="10" stroke-linecap="round" stroke-linejoin="round"/>
<path d="M9.15048 58.8583H31.6748V151.438H9.15048V58.8583ZM31.9605 213.975H9.09768C7.60193 200.486 7.60193 186.385 9.09768 172.283H31.9605C33.4563 186.385 33.4563 200.486 31.9605 213.975ZM31.9605 172.283H9.09768C13.794 166.152 13.794 158.182 9.09768 151.438H31.9605C27.2649 158.182 27.2649 166.152 31.9605 172.283ZM23.445 242.791C27.26 232.981 31.8374 223.784 31.9612 213.975H9.09839C9.22157 223.784 13.7996 232.981 17.6147 242.791H23.445ZM17.5971 242.791H23.2282V246.469H17.5971V242.791ZM20.4126 247.082V255.053ZM11.966 45.3699H28.8592V58.8583H11.966V45.3699ZM26.7476 45.3699H14.0777V29.6333C14.0777 27.4893 16.3083 25.7505 18.7697 25.7505H22.2892C23.4715 25.7505 24.6054 26.1595 25.4415 26.8877C26.2776 27.6158 26.7474 28.6035 26.7476 29.6333V45.3699Z" fill="#526066"/>
<path d="M20.4126 247.082V255.053M9.15048 58.8583H31.6748V151.438H9.15048V58.8583ZM31.9605 213.975H9.09768C7.60193 200.486 7.60193 186.385 9.09768 172.283H31.9605C33.4563 186.385 33.4563 200.486 31.9605 213.975ZM31.9605 172.283H9.09768C13.794 166.152 13.794 158.182 9.09768 151.438H31.9605C27.2649 158.182 27.2649 166.152 31.9605 172.283ZM23.445 242.791C27.26 232.981 31.8374 223.784 31.9612 213.975H9.09839C9.22157 223.784 13.7996 232.981 17.6147 242.791H23.445ZM17.5971 242.791H23.2282V246.469H17.5971V242.791ZM11.966 45.3699H28.8592V58.8583H11.966V45.3699ZM26.7476 45.3699H14.0777V29.6333C14.0777 27.4893 16.3083 25.7505 18.7697 25.7505H22.2892C23.4715 25.7505 24.6054 26.1595 25.4415 26.8877C26.2776 27.6158 26.7474 28.6035 26.7476 29.6333V45.3699Z" stroke="#D9D9D9" stroke-opacity="0.57" stroke-width="8" stroke-miterlimit="10" stroke-linecap="round" stroke-linejoin="round"/>
<path d="M17.5971 67.4419H39.4175V78.4778H17.5971V67.4419ZM39.4175 116.082L31.6748 107.192V78.4778H39.4175V116.082Z" fill="#526066" stroke="#D9D9D9" stroke-opacity="0.57" stroke-width="8" stroke-miterlimit="10" stroke-linecap="round" stroke-linejoin="round"/>
<path d="M27.0334 169.218H4.1705C8.86681 163.087 8.86681 155.116 4.1705 148.372H27.0334C22.3377 155.116 22.3377 163.087 27.0334 169.218Z" fill="#102D3B"/>
<path d="M4.2233 55.7928H26.7476V148.372H4.2233V55.7928Z" fill="#526066"/>
<path d="M4.2233 55.7928H26.7476V148.372H4.2233V55.7928Z" fill="#526066"/>
<path opacity="0.64" d="M4.2233 55.7928H11.2621V148.372H4.2233V55.7928Z" fill="#526066"/>
<path opacity="0.3" d="M20.4126 55.7928H26.7476V148.372H20.4126V55.7928Z" fill="#526066"/>
<path d="M4.2233 55.7928H26.7476V148.372H4.2233V55.7928Z" stroke="#102D3B" stroke-width="8" stroke-miterlimit="10" stroke-linecap="round" stroke-linejoin="round"/>
<path d="M27.0334 210.909H4.17051C2.67475 197.421 2.67475 183.319 4.17051 169.218H27.0334C28.5291 183.319 28.5291 197.421 27.0334 210.909Z" fill="#42708A"/>
<path d="M27.0334 210.909H4.17051C2.67475 197.421 2.67475 183.319 4.17051 169.218H27.0334C28.5291 183.319 28.5291 197.421 27.0334 210.909Z" fill="#526066"/>
<path opacity="0.3" d="M27.0334 169.218H21.5191C23.0149 183.319 23.0149 197.421 21.5191 210.909H27.0334C28.5291 197.421 28.5291 183.319 27.0334 169.218Z" fill="#526066"/>
<path opacity="0.73" d="M12.2595 210.296H8.97522C7.50129 197.003 7.48722 183.114 8.91821 169.218H12.3187C10.8454 183.107 10.8307 196.993 12.2595 210.296Z" fill="#CCDDE5"/>
<path d="M27.0334 210.909H4.17051C2.67475 197.421 2.67475 183.319 4.17051 169.218H27.0334C28.5291 183.319 28.5291 197.421 27.0334 210.909Z" stroke="#102D3B" stroke-width="8" stroke-miterlimit="10" stroke-linecap="round" stroke-linejoin="round"/>
<path d="M2.81554 183.932H28.1553V196.808H2.81554V183.932ZM27.0334 169.218H4.1705C8.86681 163.087 8.86681 155.116 4.1705 148.372H27.0334C22.3377 155.116 22.3377 163.087 27.0334 169.218Z" stroke="#102D3B" stroke-width="8" stroke-miterlimit="10" stroke-linecap="round" stroke-linejoin="round"/>
<path d="M18.5178 239.725C22.3328 229.915 26.9102 220.719 27.0341 210.909H4.17121C4.29439 220.719 8.87245 229.915 12.6875 239.725H18.5178Z" fill="#CCDDE5"/>
<path d="M27.0334 210.909C27.0305 211.114 27.0151 211.317 27.0087 211.522H11.9132C11.9928 221.157 13.9193 230.327 16.2984 239.725H12.6868C8.87174 229.915 4.29439 220.719 4.1705 210.909H27.0334Z" fill="white"/>
<path d="M15.4854 244.017V251.987M18.5178 239.725C22.3328 229.915 26.9102 220.719 27.0341 210.909H4.17121C4.29439 220.719 8.87245 229.915 12.6875 239.725H18.5178ZM12.6699 239.725H18.301V243.404H12.6699V239.725ZM7.03884 42.3044H23.932V55.7928H7.03884V42.3044Z" stroke="#102D3B" stroke-width="8" stroke-miterlimit="10" stroke-linecap="round" stroke-linejoin="round"/>
<path d="M7.03883 42.3044H23.932V55.7928H7.03883V42.3044Z" fill="#102D3B"/>
<path d="M21.8204 42.3044H9.15048V26.5678C9.15048 24.4237 11.3811 22.6849 13.8426 22.6849H17.362C18.5443 22.6849 19.6782 23.094 20.5143 23.8221C21.3504 24.5503 21.8202 25.5379 21.8204 26.5678V42.3044Z" fill="#CCDDE5"/>
<path d="M21.8204 42.3044H9.15048V26.5678C9.15048 24.4237 11.3811 22.6849 13.8426 22.6849H17.362C18.5443 22.6849 19.6782 23.094 20.5143 23.8221C21.3504 24.5503 21.8202 25.5379 21.8204 26.5678V42.3044Z" stroke="#102D3B" stroke-width="8" stroke-miterlimit="10" stroke-linecap="round" stroke-linejoin="round"/>
<path d="M12.6699 64.3763H34.4903V75.4123H12.6699V64.3763Z" fill="#B378E1"/>
<path d="M12.6699 64.3763H34.4903V75.4123H12.6699V64.3763Z" stroke="#102D3B" stroke-width="8" stroke-miterlimit="10" stroke-linecap="round" stroke-linejoin="round"/>
<path d="M34.4903 113.016L26.7476 104.126V75.4122H34.4903V113.016Z" fill="#B378E1"/>
<path d="M34.4903 113.016L26.7476 104.126V75.4122H34.4903V113.016Z" stroke="#102D3B" stroke-width="8" stroke-miterlimit="10" stroke-linecap="round" stroke-linejoin="round"/>
</g>
<defs>
<clipPath id="clip0_42_1350">
<rect width="290" height="290" fill="white"/>
</clipPath>
</defs>
</svg>
