<svg width="713" height="542" viewBox="0 0 713 542" fill="none" xmlns="http://www.w3.org/2000/svg">
<path d="M654.509 260.455V241.198C654.509 239.379 654.138 237.579 653.417 235.899C652.696 234.219 651.639 232.693 650.307 231.407C648.974 230.121 647.393 229.102 645.652 228.406C643.911 227.71 642.046 227.352 640.162 227.352H600.49C596.685 227.352 593.036 225.893 590.345 223.296C587.655 220.7 586.143 217.178 586.143 213.506V194.249C586.143 186.602 603.536 180.403 611.46 180.403H613.058C616.864 180.403 620.513 178.944 623.203 176.348C625.894 173.751 627.406 170.229 627.406 166.557V147.3C627.406 145.482 627.035 143.682 626.314 142.002C625.593 140.322 624.536 138.795 623.203 137.51C621.871 136.224 620.29 135.204 618.549 134.508C616.808 133.813 614.943 133.454 613.058 133.454H128.32C126.436 133.454 124.571 133.813 122.83 134.508C121.089 135.204 119.508 136.224 118.175 137.51C116.843 138.795 115.786 140.322 115.065 142.002C114.344 143.682 113.973 145.482 113.973 147.3V166.557C113.973 168.376 114.344 170.176 115.065 171.856C115.786 173.536 116.843 175.062 118.175 176.348C119.508 177.633 121.089 178.653 122.83 179.349C124.571 180.045 126.436 180.403 128.32 180.403C132.125 180.403 135.775 181.862 138.465 184.458C141.156 187.055 142.667 190.577 142.667 194.249V213.506C142.667 217.178 141.156 220.7 138.465 223.296C135.775 225.893 132.125 227.352 128.32 227.352H72.8386C70.9545 227.352 69.0889 227.71 67.3482 228.406C65.6075 229.102 64.0259 230.121 62.6936 231.407C61.3614 232.693 60.3046 234.219 59.5836 235.899C58.8626 237.579 58.4915 239.379 58.4915 241.198V260.455C58.4915 264.127 60.003 267.649 62.6936 270.245C65.3843 272.842 69.0335 274.3 72.8386 274.3H94.6088C98.4139 274.3 102.063 275.759 104.754 278.356C107.444 280.952 108.956 284.474 108.956 288.146V307.403C108.956 309.222 108.585 311.022 107.864 312.702C107.143 314.382 106.086 315.908 104.754 317.194C103.422 318.48 101.84 319.5 100.099 320.195C98.3585 320.891 96.4929 321.249 94.6088 321.249H94.5561C90.751 321.249 87.1018 322.708 84.4112 325.305C81.7205 327.901 80.209 331.423 80.209 335.095V354.352C80.209 356.17 80.5801 357.971 81.3011 359.651C82.0221 361.331 83.0789 362.857 84.4112 364.143C85.7434 365.428 87.325 366.448 89.0657 367.144C90.8064 367.84 92.672 368.198 94.5561 368.198H97.7058C101.511 368.198 105.16 369.657 107.851 372.253C110.541 374.85 112.053 378.372 112.053 382.044V401.301C112.053 404.973 110.541 408.495 107.851 411.091C105.16 413.688 101.511 415.147 97.7058 415.147H78.9216C77.0375 415.147 75.1718 415.505 73.4312 416.201C71.6905 416.896 70.1089 417.916 68.7766 419.202C67.4444 420.488 66.3876 422.014 65.6666 423.694C64.9455 425.374 64.5744 427.174 64.5744 428.993V448.25C64.5744 451.922 66.086 455.443 68.7766 458.04C71.4672 460.637 75.1165 462.095 78.9216 462.095H609.792C613.597 462.095 617.246 460.637 619.937 458.04C622.627 455.443 624.139 451.922 624.139 448.25V428.993C624.139 427.174 623.768 425.374 623.047 423.694C622.326 422.014 621.269 420.488 619.937 419.202C618.605 417.916 617.023 416.896 615.282 416.201C613.542 415.505 611.676 415.147 609.792 415.147H597.352C593.547 415.147 589.898 413.688 587.207 411.091C584.517 408.495 583.005 404.973 583.005 401.301V382.044C583.005 378.372 584.517 374.85 587.207 372.253C589.898 369.657 593.547 368.198 597.352 368.198H626.684C630.489 368.198 634.138 366.739 636.829 364.143C639.519 361.546 641.031 358.024 641.031 354.352V335.095C641.031 331.423 639.519 327.901 636.829 325.305C634.138 322.708 630.489 321.249 626.684 321.249H617.786C613.981 321.249 610.332 319.791 607.641 317.194C604.95 314.597 603.439 311.076 603.439 307.404V288.146C603.439 284.474 604.95 280.952 607.641 278.356C610.332 275.759 613.981 274.3 617.786 274.3H640.162C643.967 274.3 647.616 272.842 650.307 270.245C652.997 267.649 654.509 264.127 654.509 260.455Z" fill="#DBE8EC" fill-opacity="0.57"/>
<path d="M164.093 233.826C164.09 240.847 161.199 247.58 156.055 252.546C150.912 257.512 143.936 260.305 136.661 260.311H34.1531C28.9346 260.312 23.9002 258.451 20.0178 255.085C16.1354 251.72 13.6792 247.089 13.1213 242.081C12.5634 237.074 13.9433 232.045 16.9956 227.96C20.048 223.875 24.5573 221.023 29.6566 219.953C30.0645 213.995 32.8028 208.408 37.3174 204.324C41.8319 200.24 47.7855 197.964 53.9734 197.956C56.4791 197.956 58.9688 198.34 61.3499 199.093C64.9622 192.35 70.6276 186.837 77.5841 183.295C84.5406 179.752 92.4544 178.351 100.261 179.279C108.067 180.207 115.392 183.42 121.25 188.486C127.107 193.552 131.217 200.227 133.025 207.615C136.899 207.109 140.839 207.41 144.583 208.496C148.326 209.582 151.785 211.428 154.728 213.911C157.67 216.394 160.029 219.455 161.644 222.89C163.259 226.325 164.094 230.054 164.093 233.826H164.093Z" fill="#00D0BF"/>
<path d="M421.525 382.237L401.146 352.998C417.575 338.911 427.929 319.388 430.161 298.289C432.392 277.189 426.338 256.05 413.196 239.05C400.054 222.051 380.781 210.43 359.188 206.484C337.595 202.538 315.253 206.555 296.581 217.741C277.91 228.927 264.267 246.467 258.35 266.893C252.434 287.319 254.675 309.144 264.63 328.052C274.586 346.96 291.53 361.575 312.114 369.007C332.698 376.439 355.422 376.146 375.792 368.187L395.658 396.562C396.633 398.201 397.933 399.638 399.483 400.793C401.033 401.947 402.804 402.796 404.694 403.29C406.584 403.784 408.557 403.913 410.499 403.672C412.441 403.43 414.315 402.821 416.013 401.881C417.712 400.94 419.202 399.686 420.398 398.19C421.594 396.694 422.473 394.985 422.985 393.161C423.497 391.337 423.632 389.433 423.381 387.559C423.131 385.684 422.5 383.876 421.525 382.237Z" fill="#3D0767"/>
<path d="M343.044 349.93C377.604 349.93 405.621 322.892 405.621 289.54C405.621 256.187 377.604 229.149 343.044 229.149C308.484 229.149 280.467 256.187 280.467 289.54C280.467 322.892 308.484 349.93 343.044 349.93Z" fill="#C6FFFF" fill-opacity="0.95"/>
<path d="M343.044 229.149C340.057 229.152 337.073 229.36 334.116 229.771C349.012 231.842 362.635 239.024 372.488 250.002C382.342 260.979 387.766 275.016 387.766 289.54C387.766 304.063 382.342 318.1 372.488 329.077C362.635 340.055 349.012 347.237 334.116 349.308C342.623 350.492 351.291 349.971 359.58 347.78C367.87 345.588 375.602 341.772 382.296 336.569C388.989 331.367 394.501 324.889 398.486 317.541C402.472 310.192 404.846 302.13 405.461 293.857C406.075 285.583 404.917 277.277 402.059 269.455C399.201 261.632 394.703 254.462 388.847 248.391C382.991 242.32 375.902 237.478 368.022 234.168C360.141 230.857 351.639 229.149 343.044 229.149V229.149Z" fill="#87FFE9" fill-opacity="0.59"/>
<path d="M409.057 257.302C410.955 257.302 412.494 255.818 412.494 253.986C412.494 252.155 410.955 250.671 409.057 250.671C407.16 250.671 405.621 252.155 405.621 253.986C405.621 255.818 407.16 257.302 409.057 257.302Z" fill="#3086A3"/>
<path d="M406.97 325.034C404.885 329.305 402.328 333.347 399.345 337.089C396.258 340.809 392.795 344.222 389.006 347.278C385.137 350.283 380.975 352.92 376.579 355.152C367.686 359.557 357.922 362.083 347.938 362.561C345.449 362.583 342.966 362.672 340.486 362.527C338.009 362.393 335.542 362.127 333.096 361.73C323.354 360.22 314.096 356.585 306.03 351.101C314.714 355.014 324.015 357.499 333.548 358.455C342.938 359.339 352.417 358.59 361.533 356.242C366.068 355.05 370.488 353.486 374.746 351.566C378.989 349.58 383.063 347.273 386.929 344.666C390.764 341.961 394.377 338.971 397.733 335.726C401.066 332.374 404.153 328.801 406.97 325.034V325.034Z" fill="#3086A3"/>
<path d="M270.758 303.658C267.316 291.433 267.592 278.511 271.55 266.433C273.511 260.349 276.33 254.555 279.929 249.214C281.731 246.541 283.723 243.993 285.893 241.587C288.044 239.165 290.361 236.885 292.829 234.761C295.314 232.657 297.934 230.705 300.671 228.915C302.074 228.074 303.428 227.154 304.881 226.393L307.034 225.209L309.249 224.138C310.716 223.405 312.261 222.83 313.766 222.182C315.317 221.635 316.833 221.005 318.415 220.549C321.54 219.541 324.737 218.753 327.98 218.192C334.442 217.091 341.03 216.844 347.562 217.457C354.025 218.093 360.359 219.629 366.366 222.017C360.175 220.486 353.821 219.652 347.432 219.533C341.122 219.441 334.824 220.078 328.671 221.429C322.572 222.815 316.676 224.928 311.119 227.718C308.347 229.103 305.662 230.646 303.08 232.338C300.517 234.056 298.066 235.922 295.738 237.927C286.321 245.953 279.119 256.112 274.781 267.49C270.436 279.056 269.056 291.465 270.758 303.658V303.658Z" fill="#3086A3"/>
<path d="M222.97 351.995V376.518C222.97 397.815 224.308 399.429 248.047 401.686V410.722H169.807V401.686C194.884 399.429 196.556 397.492 196.556 376.195V351.995H108.284V342.315C140.049 298.752 174.488 251.642 207.924 206.789H222.97V336.505H255.738V351.995L222.97 351.995ZM196.556 240.671C175.491 270.357 152.085 303.269 129.015 336.505H196.556V240.671Z" fill="#3D0767"/>
<path d="M553.317 351.995V376.518C553.317 397.815 554.655 399.429 578.394 401.686V410.722H500.153V401.686C525.23 399.429 526.902 397.492 526.902 376.195V351.995H438.631V342.315C470.395 298.752 504.834 251.642 538.271 206.789H553.317V336.505H586.085V351.995L553.317 351.995ZM526.902 240.671C505.838 270.357 482.432 303.269 459.362 336.505H526.902V240.671Z" fill="#3D0767"/>
<path d="M668.013 137.214C668.008 146.462 664.201 155.331 657.426 161.872C650.651 168.413 641.463 172.091 631.88 172.1H496.862C489.988 172.1 483.357 169.648 478.244 165.216C473.13 160.784 469.895 154.683 469.16 148.088C468.425 141.493 470.242 134.868 474.263 129.488C478.283 124.107 484.223 120.351 490.939 118.942C491.476 111.093 495.083 103.735 501.03 98.3557C506.976 92.9765 514.818 89.9782 522.968 89.9677C526.269 89.9679 529.548 90.4735 532.684 91.4657C537.442 82.5844 544.904 75.3224 554.067 70.6565C563.23 65.9907 573.654 64.1448 583.936 65.3673C594.218 66.5897 603.866 70.8218 611.581 77.4943C619.297 84.1668 624.71 92.9595 627.092 102.69C632.194 102.024 637.384 102.42 642.314 103.851C647.245 105.281 651.801 107.713 655.677 110.983C659.553 114.253 662.659 118.286 664.787 122.81C666.914 127.334 668.014 132.246 668.013 137.214Z" fill="#00D0BF"/>
<path d="M568.093 413.826C568.09 420.847 565.199 427.58 560.055 432.546C554.912 437.512 547.936 440.305 540.661 440.311H438.153C432.935 440.312 427.9 438.451 424.018 435.085C420.135 431.72 417.679 427.089 417.121 422.081C416.563 417.074 417.943 412.045 420.996 407.96C424.048 403.875 428.557 401.023 433.656 399.953C434.064 393.995 436.803 388.408 441.317 384.324C445.832 380.24 451.785 377.964 457.973 377.956C460.479 377.956 462.969 378.34 465.35 379.093C468.962 372.35 474.628 366.837 481.584 363.295C488.541 359.752 496.454 358.351 504.261 359.279C512.067 360.207 519.392 363.42 525.25 368.486C531.107 373.552 535.217 380.227 537.025 387.615C540.899 387.109 544.839 387.41 548.583 388.496C552.326 389.582 555.785 391.428 558.728 393.911C561.67 396.394 564.028 399.455 565.644 402.89C567.259 406.325 568.094 410.054 568.093 413.826V413.826Z" fill="#00D0BF"/>
<path d="M71.0202 496.781C80.9725 496.781 89.0405 488.995 89.0405 479.391C89.0405 469.786 80.9725 462 71.0202 462C61.0679 462 53 469.786 53 479.391C53 488.995 61.0679 496.781 71.0202 496.781Z" fill="#B9D4DB" fill-opacity="0.57"/>
<path d="M98.3864 400.117C103.57 400.117 107.773 396.061 107.773 391.058C107.773 386.056 103.57 382 98.3864 382C93.2025 382 89 386.056 89 391.058C89 396.061 93.2025 400.117 98.3864 400.117Z" fill="#B9D4DB" fill-opacity="0.57"/>
<path d="M190.124 489.68C194.611 489.68 198.248 486.17 198.248 481.84C198.248 477.51 194.611 474 190.124 474C185.637 474 182 477.51 182 481.84C182 486.17 185.637 489.68 190.124 489.68Z" fill="#B9D4DB" fill-opacity="0.57"/>
<path d="M152.414 414.45C155.405 414.45 157.829 412.111 157.829 409.225C157.829 406.339 155.405 404 152.414 404C149.424 404 147 406.339 147 409.225C147 412.111 149.424 414.45 152.414 414.45Z" fill="#B9D4DB" fill-opacity="0.57"/>
<path d="M394.02 171.781C403.973 171.781 412.04 163.995 412.04 154.391C412.04 144.786 403.973 137 394.02 137C384.068 137 376 144.786 376 154.391C376 163.995 384.068 171.781 394.02 171.781Z" fill="#B9D4DB" fill-opacity="0.57"/>
<path d="M309.124 204.68C313.611 204.68 317.248 201.17 317.248 196.84C317.248 192.51 313.611 189 309.124 189C304.637 189 301 192.51 301 196.84C301 201.17 304.637 204.68 309.124 204.68Z" fill="#B9D4DB" fill-opacity="0.57"/>
<path d="M292.979 119.052C300.148 119.052 305.959 113.444 305.959 106.526C305.959 99.608 300.148 94 292.979 94C285.811 94 280 99.608 280 106.526C280 113.444 285.811 119.052 292.979 119.052Z" fill="#B9D4DB" fill-opacity="0.57"/>
<path d="M133.979 456.052C141.148 456.052 146.959 450.444 146.959 443.526C146.959 436.608 141.148 431 133.979 431C126.811 431 121 436.608 121 443.526C121 450.444 126.811 456.052 133.979 456.052Z" fill="#B9D4DB" fill-opacity="0.57"/>
</svg>
