<svg width="291" height="290" viewBox="0 0 291 290" fill="none" xmlns="http://www.w3.org/2000/svg">
<path d="M32.2188 176.719H263.272C264.473 176.707 265.656 177.018 266.697 177.619C267.738 178.22 268.598 179.089 269.19 180.135C274.244 188.711 276.91 198.483 276.91 208.437C276.91 218.392 274.244 228.164 269.19 236.74C268.598 237.786 267.738 238.655 266.697 239.256C265.656 239.857 264.473 240.168 263.272 240.156H32.2188" fill="#F8F8F8"/>
<path d="M267.844 154.062C266.789 155.469 265.42 156.611 263.847 157.398C262.274 158.184 260.54 158.594 258.781 158.594C257.023 158.594 255.288 158.184 253.715 157.398C252.142 156.611 250.774 155.469 249.719 154.062L254.25 108.75H263.312L267.844 154.062Z" fill="#4F4F4F"/>
<path d="M263.312 58.9062H254.25V90.625H263.312V58.9062Z" fill="#4F4F4F"/>
<path d="M213.469 72.5V141.475C168.156 164.3 122.844 164.3 77.5312 141.475V77.0312L213.469 72.5Z" fill="#4F4F4F"/>
<path d="M258.922 63.9722L146.597 104.033C145.887 104.282 145.113 104.282 144.403 104.033L32.0783 63.9722C30.9127 63.685 29.8646 63.0437 29.0784 62.1365C28.2921 61.2293 27.8062 60.1008 27.6875 58.9062V58.9062C27.8062 57.7116 28.2921 56.5831 29.0784 55.676C29.8646 54.7688 30.9127 54.1275 32.0783 53.8403L144.403 13.7795C145.113 13.5301 145.887 13.5301 146.597 13.7795L258.922 53.8403C260.087 54.1275 261.135 54.7688 261.922 55.676C262.708 56.5831 263.194 57.7116 263.312 58.9062V58.9062C263.194 60.1008 262.708 61.2293 261.922 62.1365C261.135 63.0437 260.087 63.685 258.922 63.9722V63.9722Z" fill="#5E5E5D"/>
<path d="M258.781 113.281C266.289 113.281 272.375 107.195 272.375 99.6875C272.375 92.1799 266.289 86.0938 258.781 86.0938C251.274 86.0938 245.188 92.1799 245.188 99.6875C245.188 107.195 251.274 113.281 258.781 113.281Z" fill="#5E5E5D"/>
<path d="M32.2188 240.156C42.2289 240.156 50.3438 225.955 50.3438 208.438C50.3438 190.92 42.2289 176.719 32.2188 176.719C22.2086 176.719 14.0938 190.92 14.0938 208.438C14.0938 225.955 22.2086 240.156 32.2188 240.156Z" fill="#F4F4F4"/>
<path d="M154.562 240.156H127.375C133.299 230.637 136.438 219.649 136.438 208.438C136.438 197.226 133.299 186.238 127.375 176.719H154.562C160.486 186.238 163.626 197.226 163.626 208.438C163.626 219.649 160.486 230.637 154.562 240.156Z" fill="#B378E1"/>
<path d="M158.115 266.854L141.227 258.413C141.15 258.374 141.063 258.358 140.977 258.367C140.891 258.376 140.81 258.409 140.742 258.463L119.359 275.568C119.286 275.625 119.197 275.658 119.104 275.662C119.011 275.667 118.919 275.643 118.841 275.593C118.762 275.544 118.7 275.471 118.664 275.386C118.628 275.3 118.619 275.206 118.639 275.115L127.375 240.156H150.031L158.749 266.306C158.778 266.391 158.781 266.483 158.757 266.57C158.733 266.657 158.684 266.734 158.616 266.793C158.548 266.852 158.464 266.889 158.375 266.9C158.286 266.911 158.195 266.895 158.115 266.854V266.854Z" fill="#875AAA"/>
<path d="M32.2188 226.563C31.3773 226.563 30.5524 226.328 29.8366 225.886C29.1207 225.443 28.5422 224.81 28.1659 224.058C27.7896 223.305 27.6303 222.462 27.7058 221.624C27.7814 220.786 28.0889 219.986 28.5938 219.313C30.9468 216.175 32.2188 212.359 32.2188 208.438C32.2188 204.516 30.9468 200.7 28.5938 197.563C27.8727 196.601 27.5631 195.393 27.7331 194.203C27.903 193.013 28.5386 191.94 29.5 191.219C30.4614 190.498 31.6699 190.188 32.8596 190.358C34.0493 190.528 35.1227 191.164 35.8438 192.125C39.3733 196.831 41.2813 202.555 41.2813 208.438C41.2813 214.32 39.3733 220.044 35.8438 224.75C35.4217 225.313 34.8744 225.77 34.2452 226.084C33.616 226.399 32.9222 226.563 32.2188 226.563Z" fill="#E6E6E6"/>
</svg>
