<svg width="290" height="290" viewBox="0 0 290 290" fill="none" xmlns="http://www.w3.org/2000/svg">
<path d="M25.9702 199.895H263.983V5.06807C263.983 2.29397 262.007 0 259.513 0H30.4397C27.9932 0 25.9702 2.24062 25.9702 5.06807V199.895Z" fill="#F2F2F2"/>
<path d="M255.124 163.573L34.3775 163.573L34.3775 9.7702L255.124 9.7702L255.124 163.573Z" fill="#0B4870"/>
<path d="M55.5159 108.243H73.8644V111.978H55.5159V108.243Z" fill="#FFBE55"/>
<path d="M39.0493 108.243H46.598V111.911H39.0493V108.243ZM39.0493 114.956H46.598V118.624H39.0493V114.956ZM39.0493 122.914H46.598V126.582H39.0493V122.914ZM39.0493 130.838H46.598V134.506H39.0493V130.838ZM39.0493 138.797H46.598V142.464H39.0493V138.797ZM39.0493 146.72H46.598V150.388H39.0493V146.72ZM77.7401 108.243H139.26V111.911H77.7401V108.243Z" fill="#CCE9FF"/>
<path d="M62.1025 115.178H80.451V118.379H62.1025V115.178Z" fill="#FFBE55"/>
<path d="M84.2148 115.178H183.485V118.379H84.2148V115.178Z" fill="#CCE9FF"/>
<path d="M72.9235 123.181H91.2719V126.382H72.9235V123.181Z" fill="#FFBE55"/>
<path d="M95.0357 123.181H156.197V126.382H95.0357V123.181Z" fill="#CCE9FF"/>
<path d="M83.7443 130.649H102.093V134.384H83.7443V130.649Z" fill="#FFBE55"/>
<path d="M105.857 130.649H156.197V134.384H105.857V130.649Z" fill="#CCE9FF"/>
<path d="M72.9235 138.651H91.2719V142.386H72.9235V138.651Z" fill="#FFBE55"/>
<path d="M95.0357 138.651H188.66V142.386H95.0357V138.651Z" fill="#B378E1"/>
<path d="M62.1025 146.654H80.451V150.388H62.1025V146.654Z" fill="#FFBE55"/>
<path d="M84.2148 146.654H124.205V150.388H84.2148V146.654Z" fill="#CCE9FF"/>
<path d="M55.5159 62.8973H73.8644V66.6317H55.5159V62.8973Z" fill="#FFBE55"/>
<path d="M39.0493 62.8973H46.598V66.5651H39.0493V62.8973ZM39.0493 69.6101H46.598V73.2779H39.0493V69.6101ZM39.0493 77.5685H46.598V81.2363H39.0493V77.5685ZM39.0493 85.4923H46.598V89.1601H39.0493V85.4923ZM39.0493 93.4507H46.598V97.1185H39.0493V93.4507ZM39.0493 101.375H46.598V105.042H39.0493V101.375ZM77.7401 62.8973H139.26V66.5651H77.7401V62.8973Z" fill="#CCE9FF"/>
<path d="M62.1025 69.8325H80.451V73.0334H62.1025V69.8325Z" fill="#FFBE55"/>
<path d="M84.2148 69.8325H145.376V73.0334H84.2148V69.8325Z" fill="#CCE9FF"/>
<path d="M72.9235 77.8347H91.2719V81.0356H72.9235V77.8347Z" fill="#FFBE55"/>
<path d="M95.0357 77.8347H183.485V81.0356H95.0357V77.8347Z" fill="#B378E1"/>
<path d="M83.7443 85.3036H102.093V89.038H83.7443V85.3036Z" fill="#FFBE55"/>
<path d="M105.857 85.3036H167.018V89.038H105.857V85.3036Z" fill="#CCE9FF"/>
<path d="M72.9235 93.3058H91.2719V97.0401H72.9235V93.3058Z" fill="#FFBE55"/>
<path d="M95.0357 93.3058H235.237V97.0401H95.0357V93.3058Z" fill="#CCE9FF"/>
<path d="M62.1025 101.308H80.451V105.042H62.1025V101.308Z" fill="#FFBE55"/>
<path d="M84.2148 101.308H124.205V105.042H84.2148V101.308Z" fill="#B378E1"/>
<path d="M55.5159 15.9512H73.8644V19.6855H55.5159V15.9512Z" fill="#FFBE55"/>
<path d="M39.0493 15.9512H46.598V19.619H39.0493V15.9512ZM39.0493 22.6639H46.598V26.3317H39.0493V22.6639ZM39.0493 30.6223H46.598V34.2901H39.0493V30.6223ZM39.0493 38.5461H46.598V42.2139H39.0493V38.5461ZM39.0493 46.5045H46.598V50.1723H39.0493V46.5045ZM39.0493 54.4283H46.598V58.0961H39.0493V54.4283ZM77.7401 15.9512H139.26V19.619H77.7401V15.9512Z" fill="#CCE9FF"/>
<path d="M62.1025 22.8864H80.451V26.0872H62.1025V22.8864Z" fill="#FFBE55"/>
<path d="M84.2148 22.8864H145.376V26.0872H84.2148V22.8864Z" fill="#B378E1"/>
<path d="M72.9235 30.8885H91.2719V34.0894H72.9235V30.8885Z" fill="#FFBE55"/>
<path d="M95.0357 30.8885H156.197V34.0894H95.0357V30.8885Z" fill="#CCE9FF"/>
<path d="M83.7443 38.3573H102.093V42.0917H83.7443V38.3573Z" fill="#FFBE55"/>
<path d="M105.857 38.3573H167.018V42.0917H105.857V38.3573Z" fill="#CCE9FF"/>
<path d="M72.9235 46.3595H91.2719V50.0939H72.9235V46.3595Z" fill="#FFBE55"/>
<path d="M95.0357 46.3595H156.197V50.0939H95.0357V46.3595Z" fill="#CCE9FF"/>
<path d="M62.1025 54.3617H80.451V58.0961H62.1025V54.3617Z" fill="#FFBE55"/>
<path d="M84.2148 54.3617H124.205V58.0961H84.2148V54.3617Z" fill="#CCE9FF"/>
<path d="M263.983 171.034H26.0642L0 281.411H290L263.983 171.034Z" fill="#F2F2F2"/>
<path d="M35.0503 190.399H49.682C50.2936 190.399 50.7641 190.933 50.623 191.519L49.2115 198.721C49.1174 199.148 48.7411 199.468 48.2706 199.468H33.4036C32.792 199.468 32.3215 198.935 32.4627 198.295L34.1093 191.093C34.2034 190.719 34.5798 190.399 35.0503 190.399ZM56.3627 190.399H67.4189L65.9604 199.522H54.669L56.3627 190.399ZM72.9234 190.399H83.9795L82.8504 199.522H71.559L72.9234 190.399ZM89.5311 190.399H100.587L99.7404 199.522H88.449L89.5311 190.399ZM106.092 190.399H117.148L116.63 199.522H105.339L106.092 190.399ZM122.652 190.399H133.709L133.52 199.522H122.229L122.652 190.399ZM255.326 190.399H238.718L240.506 199.522H257.396L255.326 190.399ZM233.214 190.399H222.158L223.616 199.522H234.907L233.214 190.399ZM216.653 190.399H205.597L206.726 199.522H218.018L216.653 190.399ZM200.045 190.399H188.989L189.836 199.522H201.127L200.045 190.399ZM183.485 190.399H172.429L172.946 199.522H184.237L183.485 190.399ZM166.924 190.399H155.868L156.056 199.522H167.347L166.924 190.399ZM139.26 190.399H150.316L150.457 199.522H139.26V190.399ZM30.2044 206.297H53.2576L51.9403 215.686H28.4166L30.2044 206.297ZM258.902 206.297H230.391L231.991 215.686H261.113L258.902 206.297ZM224.651 206.297H213.266L214.536 215.686H226.204L224.651 206.297ZM207.526 206.297H196.14L197.081 215.686H208.749L207.526 206.297ZM190.401 206.297H179.015L179.674 215.686H191.295L190.401 206.297ZM173.275 206.297H161.89L162.219 215.686H173.84L173.275 206.297ZM26.7229 222.995H50.3407L48.5999 232.331H24.5587L26.7229 222.995ZM56.2216 222.995H68.0305L66.6661 232.331H54.622L56.2216 222.995ZM73.9585 222.995H162.455L162.784 232.331H72.6411L73.9585 222.995ZM168.383 222.995H180.191L180.85 232.331H168.806L168.383 222.995ZM186.072 222.995H197.881L198.869 232.331H186.825L186.072 222.995ZM203.809 222.995H215.618L216.888 232.331H204.891L203.809 222.995ZM221.499 222.995H233.308L234.907 232.331H222.91L221.499 222.995ZM239.189 222.995H262.807L264.971 232.331H240.93L239.189 222.995ZM156.197 206.297H144.859V215.686H156.385L156.197 206.297ZM139.072 206.297H127.639L127.31 215.686H138.978L139.072 206.297ZM121.947 206.297H110.514L109.856 215.686H121.523L121.947 206.297ZM104.822 206.297H93.389L92.401 215.686H104.069L104.822 206.297ZM87.6963 206.297H76.2638L74.9464 215.686H86.6142L87.6963 206.297ZM70.571 206.297H59.1385L57.5389 215.686H69.1596L70.571 206.297ZM35.5678 184.691L37.4497 176.582H42.8131L41.0723 184.691H35.5678ZM48.1765 176.582H58.9033L57.4448 184.691H46.4828L48.1765 176.582ZM64.3137 176.582H75.0405L73.8173 184.691H62.9023L64.3137 176.582ZM80.4039 176.582H91.1307L90.1898 184.691H79.2748L80.4039 176.582ZM96.4941 176.582H107.221L106.562 184.691H95.6473L96.4941 176.582ZM112.584 176.582H123.311L122.935 184.691H112.02L112.584 176.582ZM128.675 176.582H139.401L139.307 184.691H128.392L128.675 176.582ZM144.765 176.582H155.492L155.68 184.691H144.765V176.582ZM160.855 176.582H171.582L172.052 184.691H161.137L160.855 176.582ZM176.945 176.582H187.719L188.425 184.691H177.51L176.945 176.582ZM193.082 176.582H203.809L204.844 184.691H193.929L193.082 176.582ZM209.173 176.582H219.899L221.217 184.691H210.302L209.173 176.582ZM225.263 176.582H235.99L237.589 184.691H226.674L225.263 176.582ZM241.353 176.582H252.08L253.962 184.691H243.047L241.353 176.582Z" fill="#0B4870"/>
<path d="M282.425 290H7.57463C3.38741 290 0 286.159 0 281.411H290C290 286.159 286.613 290 282.425 290ZM178.733 245.721C178.451 243.8 176.945 242.36 175.251 242.36H114.796C113.055 242.36 111.596 243.8 111.314 245.721L107.55 271.595C107.174 274.049 108.868 276.289 111.032 276.289H178.968C181.179 276.289 182.826 274.049 182.45 271.595L178.733 245.721Z" fill="#D3D3D3"/>
<path d="M224.651 256.818V256.711C224.651 256.764 224.604 256.818 224.557 256.871C224.604 256.818 224.651 256.818 224.651 256.818Z" fill="#E9D6B8"/>
</svg>
