<svg width="1206" height="793" viewBox="0 0 1206 793" fill="none" xmlns="http://www.w3.org/2000/svg">
<path opacity="0.18" d="M95 56.5001C95 85.7712 86 91.0001 62 70.5001C38 50.0001 16 72.0001 2.99999 40.0001C-10 8.00009 27 -1.9999 42 3.5001C57 9.0001 95 27.229 95 56.5001Z" fill="#B378E1"/>
<path opacity="0.18" d="M195.501 206.028C227.149 199.21 262.762 213.528 274.958 243.566C284.56 267.199 287.738 303.356 276.06 351.77C245.161 479.841 280.475 468.771 308.06 518.489C332.339 562.222 362.128 615.645 305.856 708.392C263.182 778.72 196.61 737.095 155.787 784.57C129.552 815.103 2.40537 763.57 29.9905 615.645C57.5755 467.721 18.874 434.188 4.60921 367.227C-9.74552 299.876 75.6033 160.81 114.949 198.31C138.119 220.383 175.607 210.31 195.501 206.028Z" fill="#68E1FD"/>
<path opacity="0.18" d="M810.944 35.015C732.822 47.5446 653.301 47.6491 574.553 55.2295C533.848 59.1555 305.492 175.045 352.29 421.493C369.455 512.281 460.39 585.872 552.63 581.842C631.003 578.417 639.632 526.743 779.297 523.809C885.352 521.585 967.116 597.306 1089.97 553.598C1144.42 534.229 1187.79 485.353 1201.69 429.241C1215.59 373.129 1195.39 308.308 1147.99 275.209C1123.39 257.991 1091.97 248.657 1074.45 224.224C1040.11 176.339 1109.66 102.279 1078.72 52.1389C1017.2 -47.6079 876.514 24.5318 810.944 35.015Z" fill="#C0C0C0"/>
</svg>
