<svg width="35" height="36" viewBox="0 0 35 36" fill="none" xmlns="http://www.w3.org/2000/svg">
<path d="M17 34.0001C25.8366 34.0001 33 26.8366 33 18.0001C33 9.1635 25.8366 2 17 2C8.16344 2 1 9.1635 1 18.0001C1 26.8366 8.16344 34.0001 17 34.0001Z" fill="#E9EDED"/>
<path d="M4 17.0001C4.55228 17.0001 5 16.5523 5 16.0001C5 15.4478 4.55228 15.0001 4 15.0001C3.44772 15.0001 3 15.4478 3 16.0001C3 16.5523 3.44772 17.0001 4 17.0001Z" fill="#DADADA"/>
<path d="M6 26.0001C6.55228 26.0001 7 25.5523 7 25.0001C7 24.4478 6.55228 24.0001 6 24.0001C5.44772 24.0001 5 24.4478 5 25.0001C5 25.5523 5.44772 26.0001 6 26.0001Z" fill="#DADADA"/>
<path d="M13.5 8.00006C14.3284 8.00006 15 7.32849 15 6.50006C15 5.67163 14.3284 5 13.5 5C12.6716 5 12 5.67163 12 6.50006C12 7.32849 12.6716 8.00006 13.5 8.00006Z" fill="#DADADA"/>
<path d="M17 20.0001C18.1046 20.0001 19 19.1046 19 18.0001C19 16.8955 18.1046 16.0001 17 16.0001C15.8954 16.0001 15 16.8955 15 18.0001C15 19.1046 15.8954 20.0001 17 20.0001Z" fill="#DADADA"/>
<path d="M16.5 30.0001C17.3284 30.0001 18 29.3285 18 28.5001C18 27.6716 17.3284 27.0001 16.5 27.0001C15.6716 27.0001 15 27.6716 15 28.5001C15 29.3285 15.6716 30.0001 16.5 30.0001Z" fill="#DADADA"/>
<path d="M12 15.0001C12.5523 15.0001 13 14.5523 13 14.0001C13 13.4478 12.5523 13.0001 12 13.0001C11.4477 13.0001 11 13.4478 11 14.0001C11 14.5523 11.4477 15.0001 12 15.0001Z" fill="#DADADA"/>
<path d="M24 14.0001C24.5523 14.0001 25 13.5523 25 13.0001C25 12.4478 24.5523 12.0001 24 12.0001C23.4477 12.0001 23 12.4478 23 13.0001C23 13.5523 23.4477 14.0001 24 14.0001Z" fill="#DADADA"/>
<path d="M25 27.0001C25.5523 27.0001 26 26.5523 26 26.0001C26 25.4478 25.5523 25.0001 25 25.0001C24.4477 25.0001 24 25.4478 24 26.0001C24 26.5523 24.4477 27.0001 25 27.0001Z" fill="#DADADA"/>
<path d="M27.5 21.0001C28.3284 21.0001 29 20.3285 29 19.5001C29 18.6716 28.3284 18.0001 27.5 18.0001C26.6716 18.0001 26 18.6716 26 19.5001C26 20.3285 26.6716 21.0001 27.5 21.0001Z" fill="#DADADA"/>
<path d="M29.5 26.0001C29.7761 26.0001 30 25.7762 30 25.5001C30 25.2239 29.7761 25.0001 29.5 25.0001C29.2239 25.0001 29 25.2239 29 25.5001C29 25.7762 29.2239 26.0001 29.5 26.0001Z" fill="#DADADA"/>
<path d="M31.5 17.0001C31.7761 17.0001 32 16.7762 32 16.5001C32 16.2239 31.7761 16.0001 31.5 16.0001C31.2239 16.0001 31 16.2239 31 16.5001C31 16.7762 31.2239 17.0001 31.5 17.0001Z" fill="#DADADA"/>
<path d="M7.5 29.0001C7.77614 29.0001 8 28.7762 8 28.5001C8 28.2239 7.77614 28.0001 7.5 28.0001C7.22386 28.0001 7 28.2239 7 28.5001C7 28.7762 7.22386 29.0001 7.5 29.0001Z" fill="#DADADA"/>
<path d="M3.5 14.0001C3.77614 14.0001 4 13.7762 4 13.5001C4 13.2239 3.77614 13.0001 3.5 13.0001C3.22386 13.0001 3 13.2239 3 13.5001C3 13.7762 3.22386 14.0001 3.5 14.0001Z" fill="#DADADA"/>
<path d="M19.5 32.0001C19.7761 32.0001 20 31.7762 20 31.5001C20 31.2239 19.7761 31.0001 19.5 31.0001C19.2239 31.0001 19 31.2239 19 31.5001C19 31.7762 19.2239 32.0001 19.5 32.0001Z" fill="#DADADA"/>
<path d="M23.5 6.00006C23.7761 6.00006 24 5.77614 24 5.5C24 5.22386 23.7761 5 23.5 5C23.2239 5 23 5.22386 23 5.5C23 5.77614 23.2239 6.00006 23.5 6.00006Z" fill="#DADADA"/>
<path d="M25.5 11.0001C25.7761 11.0001 26 10.7762 26 10.5001C26 10.2239 25.7761 10.0001 25.5 10.0001C25.2239 10.0001 25 10.2239 25 10.5001C25 10.7762 25.2239 11.0001 25.5 11.0001Z" fill="#DADADA"/>
<path d="M17 16.0001C16.8303 16 16.6613 16.0214 16.497 16.064C16.9268 16.1743 17.3077 16.4244 17.5798 16.7748C17.8519 17.1253 17.9997 17.5564 18 18.0001C17.9999 18.4427 17.853 18.8727 17.5823 19.2228C17.3115 19.573 16.9323 19.8235 16.504 19.935C16.666 19.977 16.8326 19.9985 17 19.999C17.5304 19.999 18.0391 19.7883 18.4142 19.4133C18.7893 19.0382 19 18.5294 19 17.999C19 17.4685 18.7893 16.9599 18.4142 16.5848C18.0391 16.2097 17.5304 15.999 17 15.999V16.0001ZM13.5 5.00098C13.3725 5.00084 13.2454 5.01701 13.122 5.04901C13.4445 5.13157 13.7303 5.31903 13.9346 5.58191C14.1388 5.84478 14.2497 6.16816 14.25 6.50104C14.2499 6.83295 14.1396 7.15546 13.9366 7.41803C13.7336 7.6806 13.4492 7.86832 13.128 7.95197C13.2495 7.98347 13.3745 7.99969 13.5 8.00006C13.8978 8.00006 14.2793 7.84191 14.5607 7.56061C14.842 7.2793 15 6.89789 15 6.50006C15 6.10224 14.842 5.72064 14.5607 5.43933C14.2793 5.15803 13.8978 5 13.5 5V5.00098ZM12 13.001C11.915 13.0009 11.8303 13.0117 11.748 13.033C11.9628 13.088 12.1533 13.2128 12.2894 13.3879C12.4255 13.5629 12.4996 13.7783 12.5 14.0001C12.5001 14.2214 12.4267 14.4366 12.2913 14.6118C12.1559 14.7869 11.9662 14.9122 11.752 14.968C11.833 14.989 11.9163 14.9998 12 15.0001C12.2652 15.0001 12.5196 14.8946 12.7071 14.7071C12.8946 14.5196 13 14.2653 13 14.0001C13 13.7348 12.8946 13.4804 12.7071 13.2929C12.5196 13.1054 12.2652 13.0001 12 13.0001V13.001ZM3.5 13.001C3.45753 13.0007 3.41519 13.0057 3.37399 13.0161C3.48149 13.0436 3.57678 13.106 3.64485 13.1937C3.71292 13.2813 3.74992 13.3891 3.75 13.5001C3.75003 13.6108 3.71333 13.7183 3.64565 13.8058C3.57796 13.8934 3.48311 13.9561 3.37599 13.9839C3.41649 13.9944 3.45816 13.9999 3.5 14.0001C3.63261 14.0001 3.75978 13.9473 3.85355 13.8536C3.94731 13.7598 4 13.6327 4 13.5001C4 13.3675 3.94731 13.2402 3.85355 13.1464C3.75978 13.0527 3.63261 13.0001 3.5 13.0001V13.001ZM4 15.001C3.91498 15.0009 3.8303 15.0117 3.748 15.033C3.96282 15.088 4.15327 15.2128 4.2894 15.3879C4.42553 15.5629 4.49961 15.7783 4.5 16.0001C4.50006 16.2214 4.42666 16.4366 4.29129 16.6118C4.15592 16.7869 3.96624 16.9122 3.752 16.968C3.833 16.989 3.91632 16.9998 4 17.0001C4.26522 17.0001 4.51957 16.8946 4.70711 16.7071C4.89464 16.5196 5 16.2653 5 16.0001C5 15.7348 4.89464 15.4804 4.70711 15.2929C4.51957 15.1054 4.26522 15.0001 4 15.0001V15.001ZM6 24.001C5.91498 24.0009 5.8303 24.0117 5.748 24.033C5.96282 24.088 6.15327 24.2128 6.2894 24.3879C6.42553 24.5629 6.49961 24.7783 6.5 25.0001C6.50006 25.2214 6.42666 25.4366 6.29129 25.6118C6.15592 25.7869 5.96624 25.9122 5.752 25.968C5.833 25.989 5.91632 25.9998 6 26.0001C6.26522 26.0001 6.51957 25.8946 6.70711 25.7071C6.89464 25.5196 7 25.2653 7 25.0001C7 24.7348 6.89464 24.4804 6.70711 24.2929C6.51957 24.1054 6.26522 24.0001 6 24.0001V24.001ZM25 25.001C24.915 25.0009 24.8303 25.0117 24.748 25.033C24.9628 25.088 25.1533 25.2128 25.2894 25.3879C25.4255 25.5629 25.4996 25.7783 25.5 26.0001C25.5001 26.2214 25.4267 26.4366 25.2913 26.6118C25.1559 26.7869 24.9662 26.9122 24.752 26.968C24.833 26.989 24.9163 26.9998 25 27.0001C25.2652 27.0001 25.5196 26.8946 25.7071 26.7071C25.8946 26.5196 26 26.2653 26 26.0001C26 25.7348 25.8946 25.4804 25.7071 25.2929C25.5196 25.1054 25.2652 25.0001 25 25.0001V25.001ZM24 12.001C23.9153 12.001 23.831 12.0118 23.749 12.033C23.9636 12.0882 24.1539 12.2131 24.2898 12.3881C24.4257 12.5632 24.4997 12.7784 24.5 13.0001C24.5001 13.2214 24.4267 13.4366 24.2913 13.6118C24.1559 13.7869 23.9662 13.9122 23.752 13.968C23.833 13.989 23.9163 13.9998 24 14.0001C24.2652 14.0001 24.5196 13.8946 24.7071 13.7071C24.8946 13.5196 25 13.2653 25 13.0001C25 12.7348 24.8946 12.4804 24.7071 12.2929C24.5196 12.1054 24.2652 12.0001 24 12.0001V12.001ZM16.5 27.001C16.3725 27.0009 16.2454 27.017 16.122 27.049C16.4445 27.1316 16.7303 27.319 16.9346 27.5818C17.1388 27.8447 17.2497 28.1682 17.25 28.501C17.2499 28.8329 17.1396 29.1555 16.9366 29.418C16.7336 29.6806 16.4492 29.8683 16.128 29.952C16.2495 29.9835 16.3745 29.9997 16.5 30.0001C16.8978 30.0001 17.2793 29.8419 17.5607 29.5606C17.842 29.2793 18 28.8979 18 28.5001C18 28.1022 17.842 27.7207 17.5607 27.4394C17.2793 27.1581 16.8978 27.0001 16.5 27.0001V27.001ZM27.5 18.001C27.3728 18.001 27.2461 18.0171 27.123 18.049C27.4453 18.1318 27.7309 18.3194 27.935 18.5822C28.139 18.8451 28.2498 19.1683 28.25 19.501C28.2499 19.8329 28.1396 20.1555 27.9366 20.418C27.7336 20.6806 27.4492 20.8683 27.128 20.952C27.2495 20.9835 27.3745 20.9997 27.5 21.0001C27.8978 21.0001 28.2793 20.8419 28.5607 20.5606C28.842 20.2793 29 19.8979 29 19.5001C29 19.1022 28.842 18.7207 28.5607 18.4394C28.2793 18.1581 27.8978 18.0001 27.5 18.0001V18.001ZM7.5 28.001C7.45753 28.0007 7.41519 28.0057 7.37399 28.0161C7.48149 28.0436 7.57678 28.106 7.64485 28.1937C7.71292 28.2813 7.74992 28.3891 7.75 28.5001C7.75003 28.6108 7.71333 28.7183 7.64565 28.8058C7.57796 28.8934 7.48311 28.9561 7.37599 28.9839C7.41649 28.9944 7.45816 28.9999 7.5 29.0001C7.63261 29.0001 7.75978 28.9473 7.85355 28.8536C7.94731 28.7598 8 28.6327 8 28.5001C8 28.3675 7.94731 28.2402 7.85355 28.1464C7.75978 28.0527 7.63261 28.0001 7.5 28.0001V28.001ZM19.5 31.001C19.4575 31.0007 19.4152 31.0057 19.374 31.0161C19.4815 31.0436 19.5768 31.106 19.6449 31.1937C19.7129 31.2813 19.7499 31.3891 19.75 31.5001C19.75 31.6108 19.7133 31.7183 19.6456 31.8058C19.578 31.8934 19.4831 31.9561 19.376 31.9839C19.4165 31.9944 19.4582 31.9999 19.5 32.0001C19.6326 32.0001 19.7598 31.9473 19.8535 31.8536C19.9473 31.7598 20 31.6327 20 31.5001C20 31.3675 19.9473 31.2402 19.8535 31.1464C19.7598 31.0527 19.6326 31.0001 19.5 31.0001V31.001ZM29.5 25.001C29.4575 25.0007 29.4152 25.0057 29.374 25.0161C29.4815 25.0436 29.5768 25.106 29.6449 25.1937C29.7129 25.2813 29.7499 25.3891 29.75 25.5001C29.75 25.6108 29.7133 25.7183 29.6456 25.8058C29.578 25.8934 29.4831 25.9561 29.376 25.9839C29.4165 25.9944 29.4582 25.9999 29.5 26.0001C29.6326 26.0001 29.7598 25.9473 29.8535 25.8536C29.9473 25.7598 30 25.6327 30 25.5001C30 25.3675 29.9473 25.2402 29.8535 25.1464C29.7598 25.0527 29.6326 25.0001 29.5 25.0001V25.001ZM31.5 16.001C31.4575 16.0007 31.4152 16.0057 31.374 16.0161C31.4815 16.0436 31.5768 16.106 31.6449 16.1937C31.7129 16.2813 31.7499 16.3891 31.75 16.5001C31.75 16.6108 31.7133 16.7183 31.6456 16.8058C31.578 16.8934 31.4831 16.9561 31.376 16.9839C31.4165 16.9944 31.4582 16.9999 31.5 17.0001C31.6326 17.0001 31.7598 16.9473 31.8535 16.8536C31.9473 16.7598 32 16.6327 32 16.5001C32 16.3675 31.9473 16.2402 31.8535 16.1464C31.7598 16.0527 31.6326 16.0001 31.5 16.0001V16.001ZM25.5 10.001C25.4575 10.0007 25.4152 10.0057 25.374 10.0161C25.4815 10.0436 25.5768 10.106 25.6449 10.1937C25.7129 10.2813 25.7499 10.3891 25.75 10.5001C25.75 10.6108 25.7133 10.7183 25.6456 10.8058C25.578 10.8934 25.4831 10.9561 25.376 10.9839C25.4165 10.9944 25.4582 10.9999 25.5 11.0001C25.6326 11.0001 25.7598 10.9473 25.8535 10.8536C25.9473 10.7598 26 10.6327 26 10.5001C26 10.3675 25.9473 10.2402 25.8535 10.1464C25.7598 10.0527 25.6326 10.0001 25.5 10.0001V10.001ZM23.5 5.00098C23.4575 5.00061 23.4152 5.00566 23.374 5.01599C23.4815 5.04351 23.5768 5.10604 23.6449 5.19366C23.7129 5.28129 23.7499 5.38904 23.75 5.5C23.75 5.61069 23.7133 5.71826 23.6456 5.80585C23.578 5.89344 23.4831 5.95605 23.376 5.98395C23.4165 5.99445 23.4582 5.99994 23.5 6.00006C23.6326 6.00006 23.7598 5.94734 23.8535 5.85358C23.9473 5.75981 24 5.63261 24 5.5C24 5.36739 23.9473 5.24019 23.8535 5.14642C23.7598 5.05266 23.6326 5 23.5 5V5.00098Z" fill="#C8D2D2"/>
<path d="M17 2C16.337 2.00655 15.6751 2.05432 15.018 2.14301C18.8783 2.6338 22.4273 4.51455 25.001 7.43329C27.5746 10.352 28.9963 14.1087 29 18.0001C28.9955 21.8969 27.5689 25.6581 24.9882 28.5778C22.4074 31.4976 18.8498 33.375 14.983 33.858C15.6517 33.9478 16.3253 33.9953 17 34.0001C21.2435 34.0001 25.3131 32.3142 28.3137 29.3137C31.3143 26.3131 33 22.2435 33 18.0001C33 13.7566 31.3143 9.68692 28.3137 6.68634C25.3131 3.68576 21.2435 2 17 2V2Z" fill="#C8C8C8" fill-opacity="0.39"/>
<path d="M16.989 1.008C16.433 1.018 15.877 1.04602 15.325 1.10602C15.181 1.12202 15.038 1.14 14.895 1.159C14.8943 1.159 14.8937 1.159 14.893 1.159H14.879C6.39299 2.226 0.00899292 9.45094 -0.00100708 18.0049C0.00599292 26.5519 6.37899 33.778 14.858 34.855H14.86C14.8657 34.8551 14.8713 34.8551 14.877 34.855C15.301 34.906 15.728 34.942 16.155 34.962C16.427 34.982 16.698 34.996 16.971 35.002C16.9827 35.0022 16.9943 35.0022 17.006 35.002C17.486 35.002 17.964 34.975 18.442 34.931C18.4427 34.931 18.4433 34.931 18.444 34.931C18.732 34.904 19.019 34.869 19.305 34.827H19.323C19.588 34.793 19.853 34.751 20.118 34.704C20.123 34.7041 20.128 34.7041 20.133 34.704C20.408 34.65 20.683 34.59 20.955 34.523H20.975C21.238 34.462 21.502 34.395 21.762 34.321C21.7687 34.3177 21.7754 34.3144 21.782 34.311C22.055 34.228 22.327 34.137 22.596 34.04L22.616 34.03C22.869 33.944 23.12 33.854 23.369 33.756C23.3764 33.7528 23.3837 33.7495 23.391 33.746C23.657 33.635 23.92 33.5161 24.18 33.3911H24.182C24.422 33.2821 24.662 33.169 24.897 33.049C24.9037 33.0458 24.9104 33.0424 24.917 33.039C25.176 32.899 25.432 32.751 25.684 32.598C25.918 32.462 26.149 32.321 26.377 32.174C26.3837 32.1701 26.3904 32.1661 26.397 32.162C26.617 32.012 26.835 31.856 27.049 31.695L27.067 31.681C27.3 31.513 27.529 31.34 27.754 31.16C27.7601 31.1547 27.7661 31.1494 27.772 31.144C27.976 30.973 28.176 30.797 28.372 30.616H28.375C28.59 30.427 28.8 30.232 29.005 30.032C29.0101 30.0261 29.0151 30.02 29.02 30.014C29.215 29.814 29.407 29.609 29.592 29.399L29.604 29.3849C29.786 29.1879 29.963 28.987 30.135 28.782C30.1404 28.7761 30.1457 28.77 30.151 28.764C30.331 28.539 30.504 28.31 30.672 28.076L30.686 28.058C30.846 27.844 31.003 27.6269 31.153 27.4059C31.1567 27.3993 31.1604 27.3928 31.164 27.386C31.312 27.158 31.452 26.926 31.588 26.692C31.742 26.44 31.89 26.1821 32.03 25.9221C32.0334 25.9164 32.0367 25.9107 32.04 25.905C32.156 25.675 32.267 25.444 32.374 25.21L32.382 25.19C32.507 24.928 32.627 24.664 32.739 24.397C32.7424 24.3904 32.7457 24.3837 32.749 24.377C32.847 24.128 32.937 23.877 33.022 23.624L33.03 23.603C33.128 23.333 33.219 23.062 33.302 22.788C33.3041 22.7817 33.3061 22.7753 33.308 22.769C33.381 22.509 33.448 22.246 33.509 21.982L33.515 21.962C33.583 21.69 33.643 21.415 33.697 21.14C33.6984 21.1346 33.6997 21.1293 33.701 21.124C33.748 20.86 33.789 20.594 33.824 20.329L33.826 20.311C33.9366 19.5502 33.9954 18.7827 34.002 18.014C34.002 18.008 34.002 18.002 34.002 17.996C33.9954 17.2266 33.9366 16.4584 33.826 15.697L33.824 15.679C33.7892 15.4131 33.7482 15.148 33.701 14.884C33.6997 14.878 33.6984 14.872 33.697 14.866C33.643 14.5932 33.5823 14.3217 33.515 14.0519L33.509 14.032C33.4478 13.7648 33.3801 13.499 33.306 13.235C33.3041 13.2277 33.3021 13.2203 33.3 13.213C33.219 12.946 33.13 12.681 33.036 12.418C32.946 12.152 32.85 11.89 32.747 11.629C32.7444 11.6216 32.7417 11.6143 32.739 11.607C32.628 11.342 32.509 11.079 32.384 10.82C32.274 10.579 32.16 10.339 32.04 10.103C32.0367 10.0963 32.0334 10.0896 32.03 10.0829C31.8897 9.82349 31.7426 9.56777 31.589 9.31598C31.4533 9.08127 31.3119 8.8499 31.165 8.62201C31.1611 8.61563 31.1571 8.60925 31.153 8.60297C31.003 8.38197 30.847 8.16499 30.686 7.95099L30.673 7.93304C30.5048 7.69935 30.3308 7.46989 30.151 7.245C30.1461 7.23894 30.1411 7.23293 30.136 7.22699C29.9647 7.02288 29.7887 6.82284 29.608 6.62701H29.604C29.415 6.41301 29.22 6.20402 29.02 5.99902C29.0151 5.99364 29.01 5.98825 29.005 5.98297C28.808 5.79097 28.607 5.60298 28.401 5.41998L28.385 5.40399C28.179 5.21399 27.968 5.02999 27.753 4.85199C27.7484 4.84795 27.7437 4.84398 27.739 4.84003C27.529 4.67103 27.314 4.51001 27.096 4.35101L27.079 4.33698C26.855 4.16798 26.627 4.00498 26.395 3.84698C26.3884 3.84224 26.3817 3.83759 26.375 3.83301C26.1484 3.68688 25.9183 3.54618 25.685 3.41101H25.678C25.428 3.25901 25.174 3.113 24.917 2.974C24.9104 2.97059 24.9037 2.96725 24.897 2.96399C24.6679 2.84742 24.4362 2.73608 24.202 2.63L24.182 2.62C23.9218 2.49395 23.6583 2.37461 23.392 2.26202C23.3847 2.2586 23.3774 2.25526 23.37 2.25201C23.12 2.15401 22.87 2.065 22.616 1.979L22.596 1.96899C22.327 1.87154 22.0556 1.78088 21.782 1.69702C21.7754 1.69294 21.7687 1.68892 21.762 1.685C21.502 1.612 21.239 1.54499 20.975 1.48499H20.955C20.685 1.41699 20.413 1.35598 20.139 1.30298C20.1323 1.30291 20.1257 1.30291 20.119 1.30298C19.842 1.25298 19.562 1.21298 19.282 1.17798H19.259C18.999 1.13998 18.739 1.10797 18.477 1.08197C18.4743 1.08196 18.4717 1.08196 18.469 1.08197C17.9822 1.03701 17.4938 1.01302 17.005 1.01001C16.9997 1.00997 16.9943 1.00997 16.989 1.01001V0.997986V1.008ZM16.999 2.008C17.4594 2.01081 17.9195 2.03349 18.378 2.07599C18.631 2.1013 18.8834 2.13264 19.135 2.16998C19.406 2.2034 19.6761 2.24378 19.945 2.29102C20.2091 2.34304 20.4718 2.40169 20.733 2.46698C20.9872 2.52513 21.2399 2.58947 21.491 2.65997C21.7549 2.74052 22.0166 2.82791 22.276 2.922C22.5208 3.00477 22.7635 3.09346 23.004 3.18799C23.2616 3.29564 23.5164 3.41003 23.768 3.53101C23.9952 3.63407 24.2199 3.74245 24.442 3.85602C24.6865 3.98772 24.9276 4.12577 25.165 4.27002C25.391 4.40055 25.6137 4.53655 25.833 4.67798C26.057 4.83037 26.277 4.98842 26.493 5.15198C26.7035 5.30458 26.9102 5.46232 27.113 5.625C27.3208 5.79749 27.5242 5.97523 27.723 6.15802C27.9214 6.33351 28.1155 6.51385 28.305 6.69897C28.4943 6.89293 28.6787 7.09166 28.858 7.29498C29.0333 7.48416 29.204 7.67763 29.37 7.87506C29.5437 8.09198 29.7118 8.31333 29.874 8.539C30.0291 8.74567 30.1791 8.95605 30.324 9.16998C30.4665 9.38992 30.6035 9.61336 30.735 9.84003C30.8792 10.0774 31.0173 10.3185 31.149 10.563C31.2622 10.7848 31.3702 11.0092 31.473 11.236C31.5943 11.487 31.709 11.741 31.817 11.998C31.9135 12.2437 32.0038 12.4918 32.088 12.742C32.1791 12.9952 32.2638 13.2506 32.342 13.508C32.4137 13.763 32.479 14.0198 32.538 14.278C32.6029 14.5382 32.6612 14.8 32.713 15.063C32.7585 15.3164 32.7978 15.5707 32.831 15.826C32.8715 16.1011 32.9049 16.3772 32.931 16.654C32.9728 17.1042 32.9955 17.5559 32.999 18.008C32.9951 18.4594 32.9721 18.9106 32.93 19.36C32.9039 19.6369 32.8705 19.913 32.83 20.188C32.7971 20.4433 32.7581 20.6976 32.713 20.951C32.6613 21.2161 32.603 21.4799 32.538 21.742C32.4795 21.9962 32.4148 22.249 32.344 22.5001C32.2638 22.7639 32.1767 23.0256 32.083 23.285C32.0002 23.5301 31.9115 23.7732 31.817 24.014C31.709 24.2713 31.5943 24.5257 31.473 24.777C31.3703 25.0042 31.2622 25.2289 31.149 25.451C31.0173 25.6955 30.8792 25.9366 30.735 26.174C30.6038 26.4007 30.4671 26.6241 30.325 26.8441C30.1798 27.0577 30.0294 27.2677 29.874 27.4741C29.7118 27.7001 29.5437 27.9217 29.37 28.139C29.204 28.3364 29.0333 28.5299 28.858 28.7191C28.6787 28.9224 28.4943 29.1211 28.305 29.315C28.1114 29.504 27.913 29.6881 27.71 29.867C27.5208 30.0423 27.3274 30.213 27.13 30.379C26.9127 30.5527 26.691 30.7208 26.465 30.883C26.2587 31.0384 26.0486 31.1888 25.835 31.334C25.615 31.4762 25.3916 31.6128 25.165 31.744C24.9276 31.8882 24.6865 32.0263 24.442 32.158C24.2199 32.2716 23.9952 32.3799 23.768 32.483C23.5164 32.604 23.2616 32.7183 23.004 32.826C22.7635 32.9205 22.5208 33.0092 22.276 33.092C22.0166 33.1861 21.7549 33.2734 21.491 33.3539C21.2399 33.4244 20.9872 33.4889 20.733 33.5471C20.4709 33.6124 20.2071 33.671 19.942 33.723C19.6883 33.7681 19.4336 33.8072 19.178 33.84C18.9029 33.8805 18.6268 33.9139 18.35 33.94C17.9008 33.9817 17.4501 34.0044 16.999 34.008C16.742 34.0008 16.4853 33.9875 16.229 33.968C15.8179 33.9505 15.4076 33.9171 14.999 33.868C14.9943 33.868 14.9897 33.868 14.985 33.868C11.1238 33.3781 7.57365 31.4976 4.9992 28.5786C2.42474 25.6595 1.00258 21.9021 0.998993 18.0099C1.00378 14.1133 2.4304 10.3524 5.01116 7.43286C7.59191 4.51334 11.1494 2.63595 15.016 2.15302C15.02 2.15301 15.024 2.15301 15.028 2.15302C15.1624 2.13464 15.2971 2.11798 15.432 2.10303C15.9525 2.04708 16.4755 2.0167 16.999 2.01202V2.008Z" fill="#C5C5C5"/>
</svg>
