<svg width="35" height="36" viewBox="0 0 35 36" fill="none" xmlns="http://www.w3.org/2000/svg">
<path d="M17 34.0001C25.8366 34.0001 33 26.8366 33 18.0001C33 9.1635 25.8366 2 17 2C8.16344 2 1 9.1635 1 18.0001C1 26.8366 8.16344 34.0001 17 34.0001Z" fill="#FFC700"/>
<path d="M10 18C11.6569 18 13 16.6569 13 15C13 13.3431 11.6569 12 10 12C8.34315 12 7 13.3431 7 15C7 16.6569 8.34315 18 10 18Z" fill="#FFA800"/>
<path d="M24.5 25C25.3284 25 26 24.3284 26 23.5C26 22.6716 25.3284 22 24.5 22C23.6716 22 23 22.6716 23 23.5C23 24.3284 23.6716 25 24.5 25Z" fill="#FFA800"/>
<path d="M3.5 14.0001C3.77614 14.0001 4 13.7762 4 13.5001C4 13.2239 3.77614 13.0001 3.5 13.0001C3.22386 13.0001 3 13.2239 3 13.5001C3 13.7762 3.22386 14.0001 3.5 14.0001Z" fill="#FFA800"/>
<path d="M19.5 32.0001C19.7761 32.0001 20 31.7762 20 31.5001C20 31.2239 19.7761 31.0001 19.5 31.0001C19.2239 31.0001 19 31.2239 19 31.5001C19 31.7762 19.2239 32.0001 19.5 32.0001Z" fill="#FFA800"/>
<path d="M25.5 11.0001C25.7761 11.0001 26 10.7762 26 10.5001C26 10.2239 25.7761 10.0001 25.5 10.0001C25.2239 10.0001 25 10.2239 25 10.5001C25 10.7762 25.2239 11.0001 25.5 11.0001Z" fill="#FFA800"/>
<path d="M17 2C16.337 2.00655 15.6751 2.05432 15.018 2.14301C18.8783 2.6338 22.4273 4.51455 25.001 7.43329C27.5746 10.352 28.9963 14.1087 29 18.0001C28.9955 21.8969 27.5689 25.6581 24.9882 28.5778C22.4074 31.4976 18.8498 33.375 14.983 33.858C15.6517 33.9478 16.3253 33.9953 17 34.0001C21.2435 34.0001 25.3131 32.3142 28.3137 29.3137C31.3143 26.3131 33 22.2435 33 18.0001C33 13.7566 31.3143 9.68692 28.3137 6.68634C25.3131 3.68576 21.2435 2 17 2V2Z" fill="#FFD600"/>
<path d="M16.989 1.008C16.433 1.018 15.877 1.04602 15.325 1.10602C15.181 1.12202 15.038 1.14 14.895 1.159C14.8943 1.159 14.8937 1.159 14.893 1.159H14.879C6.39299 2.226 0.00899292 9.45094 -0.00100708 18.0049C0.00599292 26.5519 6.37899 33.778 14.858 34.855H14.86C14.8657 34.8551 14.8713 34.8551 14.877 34.855C15.301 34.906 15.728 34.942 16.155 34.962C16.427 34.982 16.698 34.996 16.971 35.002C16.9827 35.0022 16.9943 35.0022 17.006 35.002C17.486 35.002 17.964 34.975 18.442 34.931C18.4427 34.931 18.4433 34.931 18.444 34.931C18.732 34.904 19.019 34.869 19.305 34.827H19.323C19.588 34.793 19.853 34.751 20.118 34.704C20.123 34.7041 20.128 34.7041 20.133 34.704C20.408 34.65 20.683 34.59 20.955 34.523H20.975C21.238 34.462 21.502 34.395 21.762 34.321C21.7687 34.3177 21.7754 34.3144 21.782 34.311C22.055 34.228 22.327 34.137 22.596 34.04L22.616 34.03C22.869 33.944 23.12 33.854 23.369 33.756C23.3764 33.7528 23.3837 33.7495 23.391 33.746C23.657 33.635 23.92 33.5161 24.18 33.3911H24.182C24.422 33.2821 24.662 33.169 24.897 33.049C24.9037 33.0458 24.9104 33.0424 24.917 33.039C25.176 32.899 25.432 32.751 25.684 32.598C25.918 32.462 26.149 32.321 26.377 32.174C26.3837 32.1701 26.3904 32.1661 26.397 32.162C26.617 32.012 26.835 31.856 27.049 31.695L27.067 31.681C27.3 31.513 27.529 31.34 27.754 31.16C27.7601 31.1547 27.7661 31.1494 27.772 31.144C27.976 30.973 28.176 30.797 28.372 30.616H28.375C28.59 30.427 28.8 30.232 29.005 30.032C29.0101 30.0261 29.0151 30.02 29.02 30.014C29.215 29.814 29.407 29.609 29.592 29.399L29.604 29.3849C29.786 29.1879 29.963 28.987 30.135 28.782C30.1404 28.7761 30.1457 28.77 30.151 28.764C30.331 28.539 30.504 28.31 30.672 28.076L30.686 28.058C30.846 27.844 31.003 27.6269 31.153 27.4059C31.1567 27.3993 31.1604 27.3928 31.164 27.386C31.312 27.158 31.452 26.926 31.588 26.692C31.742 26.44 31.89 26.1821 32.03 25.9221C32.0334 25.9164 32.0367 25.9107 32.04 25.905C32.156 25.675 32.267 25.444 32.374 25.21L32.382 25.19C32.507 24.928 32.627 24.664 32.739 24.397C32.7424 24.3904 32.7457 24.3837 32.749 24.377C32.847 24.128 32.937 23.877 33.022 23.624L33.03 23.603C33.128 23.333 33.219 23.062 33.302 22.788C33.3041 22.7817 33.3061 22.7753 33.308 22.769C33.381 22.509 33.448 22.246 33.509 21.982L33.515 21.962C33.583 21.69 33.643 21.415 33.697 21.14C33.6984 21.1346 33.6997 21.1293 33.701 21.124C33.748 20.86 33.789 20.594 33.824 20.329L33.826 20.311C33.9366 19.5502 33.9954 18.7827 34.002 18.014C34.002 18.008 34.002 18.002 34.002 17.996C33.9954 17.2266 33.9366 16.4584 33.826 15.697L33.824 15.679C33.7892 15.4131 33.7482 15.148 33.701 14.884C33.6997 14.878 33.6984 14.872 33.697 14.866C33.643 14.5932 33.5823 14.3217 33.515 14.0519L33.509 14.032C33.4478 13.7648 33.3801 13.499 33.306 13.235C33.3041 13.2277 33.3021 13.2203 33.3 13.213C33.219 12.946 33.13 12.681 33.036 12.418C32.946 12.152 32.85 11.89 32.747 11.629C32.7444 11.6216 32.7417 11.6143 32.739 11.607C32.628 11.342 32.509 11.079 32.384 10.82C32.274 10.579 32.16 10.339 32.04 10.103C32.0367 10.0963 32.0334 10.0896 32.03 10.0829C31.8897 9.82349 31.7426 9.56777 31.589 9.31598C31.4533 9.08127 31.3119 8.8499 31.165 8.62201C31.1611 8.61563 31.1571 8.60925 31.153 8.60297C31.003 8.38197 30.847 8.16499 30.686 7.95099L30.673 7.93304C30.5048 7.69935 30.3308 7.46989 30.151 7.245C30.1461 7.23894 30.1411 7.23293 30.136 7.22699C29.9647 7.02288 29.7887 6.82284 29.608 6.62701H29.604C29.415 6.41301 29.22 6.20402 29.02 5.99902C29.0151 5.99364 29.01 5.98825 29.005 5.98297C28.808 5.79097 28.607 5.60298 28.401 5.41998L28.385 5.40399C28.179 5.21399 27.968 5.02999 27.753 4.85199C27.7484 4.84795 27.7437 4.84398 27.739 4.84003C27.529 4.67103 27.314 4.51001 27.096 4.35101L27.079 4.33698C26.855 4.16798 26.627 4.00498 26.395 3.84698C26.3884 3.84224 26.3817 3.83759 26.375 3.83301C26.1484 3.68688 25.9183 3.54618 25.685 3.41101H25.678C25.428 3.25901 25.174 3.113 24.917 2.974C24.9104 2.97059 24.9037 2.96725 24.897 2.96399C24.6679 2.84742 24.4362 2.73608 24.202 2.63L24.182 2.62C23.9218 2.49395 23.6583 2.37461 23.392 2.26202C23.3847 2.2586 23.3774 2.25526 23.37 2.25201C23.12 2.15401 22.87 2.065 22.616 1.979L22.596 1.96899C22.327 1.87154 22.0556 1.78088 21.782 1.69702C21.7754 1.69294 21.7687 1.68892 21.762 1.685C21.502 1.612 21.239 1.54499 20.975 1.48499H20.955C20.685 1.41699 20.413 1.35598 20.139 1.30298C20.1323 1.30291 20.1257 1.30291 20.119 1.30298C19.842 1.25298 19.562 1.21298 19.282 1.17798H19.259C18.999 1.13998 18.739 1.10797 18.477 1.08197C18.4743 1.08196 18.4717 1.08196 18.469 1.08197C17.9822 1.03701 17.4938 1.01302 17.005 1.01001C16.9997 1.00997 16.9943 1.00997 16.989 1.01001V0.997986V1.008ZM16.999 2.008C17.4594 2.01081 17.9195 2.03349 18.378 2.07599C18.631 2.1013 18.8834 2.13264 19.135 2.16998C19.406 2.2034 19.6761 2.24378 19.945 2.29102C20.2091 2.34304 20.4718 2.40169 20.733 2.46698C20.9872 2.52513 21.2399 2.58947 21.491 2.65997C21.7549 2.74052 22.0166 2.82791 22.276 2.922C22.5208 3.00477 22.7635 3.09346 23.004 3.18799C23.2616 3.29564 23.5164 3.41003 23.768 3.53101C23.9952 3.63407 24.2199 3.74245 24.442 3.85602C24.6865 3.98772 24.9276 4.12577 25.165 4.27002C25.391 4.40055 25.6137 4.53655 25.833 4.67798C26.057 4.83037 26.277 4.98842 26.493 5.15198C26.7035 5.30458 26.9102 5.46232 27.113 5.625C27.3208 5.79749 27.5242 5.97523 27.723 6.15802C27.9214 6.33351 28.1155 6.51385 28.305 6.69897C28.4943 6.89293 28.6787 7.09166 28.858 7.29498C29.0333 7.48416 29.204 7.67763 29.37 7.87506C29.5437 8.09198 29.7118 8.31333 29.874 8.539C30.0291 8.74567 30.1791 8.95605 30.324 9.16998C30.4665 9.38992 30.6035 9.61336 30.735 9.84003C30.8792 10.0774 31.0173 10.3185 31.149 10.563C31.2622 10.7848 31.3702 11.0092 31.473 11.236C31.5943 11.487 31.709 11.741 31.817 11.998C31.9135 12.2437 32.0038 12.4918 32.088 12.742C32.1791 12.9952 32.2638 13.2506 32.342 13.508C32.4137 13.763 32.479 14.0198 32.538 14.278C32.6029 14.5382 32.6612 14.8 32.713 15.063C32.7585 15.3164 32.7978 15.5707 32.831 15.826C32.8715 16.1011 32.9049 16.3772 32.931 16.654C32.9728 17.1042 32.9955 17.5559 32.999 18.008C32.9951 18.4594 32.9721 18.9106 32.93 19.36C32.9039 19.6369 32.8705 19.913 32.83 20.188C32.7971 20.4433 32.7581 20.6976 32.713 20.951C32.6613 21.2161 32.603 21.4799 32.538 21.742C32.4795 21.9962 32.4148 22.249 32.344 22.5001C32.2638 22.7639 32.1767 23.0256 32.083 23.285C32.0002 23.5301 31.9115 23.7732 31.817 24.014C31.709 24.2713 31.5943 24.5257 31.473 24.777C31.3703 25.0042 31.2622 25.2289 31.149 25.451C31.0173 25.6955 30.8792 25.9366 30.735 26.174C30.6038 26.4007 30.4671 26.6241 30.325 26.8441C30.1798 27.0577 30.0294 27.2677 29.874 27.4741C29.7118 27.7001 29.5437 27.9217 29.37 28.139C29.204 28.3364 29.0333 28.5299 28.858 28.7191C28.6787 28.9224 28.4943 29.1211 28.305 29.315C28.1114 29.504 27.913 29.6881 27.71 29.867C27.5208 30.0423 27.3274 30.213 27.13 30.379C26.9127 30.5527 26.691 30.7208 26.465 30.883C26.2587 31.0384 26.0486 31.1888 25.835 31.334C25.615 31.4762 25.3916 31.6128 25.165 31.744C24.9276 31.8882 24.6865 32.0263 24.442 32.158C24.2199 32.2716 23.9952 32.3799 23.768 32.483C23.5164 32.604 23.2616 32.7183 23.004 32.826C22.7635 32.9205 22.5208 33.0092 22.276 33.092C22.0166 33.1861 21.7549 33.2734 21.491 33.3539C21.2399 33.4244 20.9872 33.4889 20.733 33.5471C20.4709 33.6124 20.2071 33.671 19.942 33.723C19.6883 33.7681 19.4336 33.8072 19.178 33.84C18.9029 33.8805 18.6268 33.9139 18.35 33.94C17.9008 33.9817 17.4501 34.0044 16.999 34.008C16.742 34.0008 16.4853 33.9875 16.229 33.968C15.8179 33.9505 15.4076 33.9171 14.999 33.868C14.9943 33.868 14.9897 33.868 14.985 33.868C11.1238 33.3781 7.57365 31.4976 4.9992 28.5786C2.42474 25.6595 1.00258 21.9021 0.998993 18.0099C1.00378 14.1133 2.4304 10.3524 5.01116 7.43286C7.59191 4.51334 11.1494 2.63595 15.016 2.15302C15.02 2.15301 15.024 2.15301 15.028 2.15302C15.1624 2.13464 15.2971 2.11798 15.432 2.10303C15.9525 2.04708 16.4755 2.0167 16.999 2.01202V2.008Z" fill="#FCFF51"/>
</svg>
