<svg width="290" height="290" viewBox="0 0 290 290" fill="none" xmlns="http://www.w3.org/2000/svg">
<path d="M137.19 44.5422C136.429 41.0287 136.023 37.6445 135.849 34.0846C135.686 30.548 135.799 26.9247 136.483 23.2051C137.188 19.5064 138.278 15.6368 140.61 11.9534C141.223 10.9803 141.92 10.035 142.695 9.13101C145.925 5.35818 152.021 6.38904 153.775 11.0358C154.795 13.7387 154.01 16.9242 151.601 18.5186C151.176 18.7996 150.756 19.1173 150.342 19.4764C148.554 21.021 147.065 23.3818 145.815 25.9805C143.334 31.2339 142.115 37.777 141.768 44.0194L137.19 44.5422Z" fill="#6D6D6D"/>
<path d="M197.044 78.1771C194.332 105.156 174.619 127.242 153.113 127.484C150.982 127.484 148.852 127.291 146.865 126.903C141.973 125.935 136.985 125.935 132.093 126.903C130.106 127.291 127.976 127.484 125.844 127.484C104.291 127.243 84.6256 105.156 81.9131 78.1771C79.2011 51.1017 94.4584 29.354 115.963 29.5964C119.887 29.6451 123.713 29.9839 127.394 30.953C135.386 32.9388 143.62 32.9388 151.563 30.9043C155.244 29.9839 159.071 29.6451 162.945 29.5964C184.5 29.354 199.757 51.1017 197.044 78.1771Z" fill="#F96464"/>
<path opacity="0.08" d="M197.044 78.1731C194.329 105.167 174.616 127.255 153.114 127.471C150.985 127.471 148.857 127.286 146.851 126.916C146.605 126.855 146.327 126.823 146.08 126.793C165.021 122.844 181.279 102.514 183.716 78.1737C186.153 53.7406 173.968 33.6576 155.705 30.1407C158.08 29.7703 160.517 29.6162 162.955 29.5857C184.488 29.3687 199.758 51.087 197.044 78.1731Z" fill="black"/>
<path d="M142.835 34.4233C142.233 32.7185 143.105 30.7598 144.776 30.0665C154.922 25.8531 165.081 26.0898 173.572 29.981C182.161 33.7482 189.132 41.2423 192.729 51.5866C193.322 53.2932 192.441 55.2456 190.77 55.9321C170.534 64.2367 150.113 55.0428 142.835 34.4233Z" fill="#13BD79"/>
<path d="M251.432 169.272C255.689 173.098 261.304 175.442 267.505 175.442H163.849C150.615 175.442 139.879 164.706 139.879 151.472C139.879 144.839 142.563 138.855 146.882 134.505C151.232 130.155 157.217 127.471 163.849 127.471H267.505C261.335 127.471 255.72 129.785 251.493 133.641C251.154 133.918 250.845 134.196 250.537 134.505C246.187 138.855 243.504 144.839 243.504 151.472C243.503 158.537 246.557 164.892 251.432 169.272Z" fill="#0BAD67"/>
<path d="M251.432 169.272H163.849C154.039 169.272 146.049 161.282 146.049 151.472C146.049 146.721 147.9 142.248 151.263 138.885C154.626 135.522 159.098 133.641 163.849 133.641H251.494C251.155 133.918 250.846 134.196 250.538 134.505C246.188 138.855 243.504 144.839 243.504 151.472C243.503 158.537 246.557 164.892 251.432 169.272Z" fill="#F8F8F8"/>
<path d="M163.855 175.456H23.9941C10.7476 175.456 0.00567627 164.719 0.00567627 151.472C0.00567627 144.849 2.69101 138.85 7.03138 134.51C11.3712 130.169 17.3706 127.484 23.9941 127.484H163.855C157.231 127.484 151.236 130.169 146.892 134.51C142.552 138.85 139.866 144.849 139.866 151.472C139.867 164.719 150.608 175.456 163.855 175.456Z" fill="#13BD79"/>
<path opacity="0.08" d="M163.849 175.443H137.874C124.609 175.443 113.873 164.707 113.873 151.472C113.873 144.84 116.557 138.855 120.906 134.505C125.256 130.155 131.241 127.471 137.873 127.471H163.849C157.216 127.471 151.232 130.155 146.882 134.505C142.563 138.855 139.879 144.84 139.879 151.472C139.879 164.707 150.615 175.443 163.849 175.443Z" fill="black"/>
<path d="M150.121 199.444C150.121 212.678 139.385 223.414 126.151 223.414H22.4954C28.6964 223.414 34.3112 221.069 38.5683 217.244C43.4428 212.863 46.4969 206.508 46.4969 199.444C46.4969 192.811 43.8127 186.826 39.4632 182.476C39.1545 182.168 38.8464 181.859 38.5071 181.612C34.2806 177.756 28.6658 175.443 22.496 175.443H126.151C132.784 175.443 138.768 178.126 143.118 182.476C147.437 186.826 150.121 192.811 150.121 199.444Z" fill="#F2B816"/>
<path d="M143.951 199.444C143.951 209.254 135.961 217.244 126.151 217.244H38.5683C43.4428 212.863 46.4969 206.508 46.4969 199.444C46.4969 192.811 43.8127 186.826 39.4632 182.476C39.1545 182.168 38.8464 181.859 38.5071 181.612H126.152C130.903 181.612 135.376 183.494 138.738 186.857C142.1 190.22 143.951 194.693 143.951 199.444Z" fill="#F8F8F8"/>
<path d="M126.145 223.428H266.005C279.252 223.428 289.994 212.691 289.994 199.444C289.994 192.821 287.308 186.822 282.968 182.481C278.628 178.141 272.629 175.456 266.005 175.456H126.145C132.768 175.456 138.763 178.141 143.108 182.481C147.447 186.822 150.133 192.821 150.133 199.444C150.133 212.691 139.392 223.428 126.145 223.428Z" fill="#FFCE29"/>
<path opacity="0.08" d="M289.994 199.444C289.994 212.678 279.258 223.414 265.992 223.414H240.665C253.9 223.414 264.635 212.678 264.635 199.444C264.635 192.811 261.951 186.826 257.632 182.476C253.282 178.126 247.267 175.443 240.665 175.443H265.992C272.625 175.443 278.641 178.126 282.96 182.476C287.31 186.826 289.994 192.811 289.994 199.444Z" fill="black"/>
<path d="M267.566 277C272.595 280.856 278.888 283.17 285.706 283.17H160.949C144.475 283.17 131.087 269.781 131.087 253.307C131.087 245.039 134.418 237.574 139.848 232.175C145.247 226.777 152.712 223.414 160.949 223.414H285.705C278.918 223.414 272.625 225.696 267.597 229.584C266.517 230.355 265.53 231.219 264.573 232.175C259.174 237.574 255.843 245.039 255.843 253.307C255.843 262.963 260.44 271.57 267.566 277Z" fill="#4EC5D8"/>
<path d="M267.566 277H160.949C147.9 277 137.257 266.357 137.257 253.307C137.257 246.952 139.724 240.998 144.198 236.525C148.671 232.052 154.625 229.584 160.949 229.584H267.597C266.517 230.355 265.53 231.219 264.573 232.175C259.174 237.574 255.843 245.039 255.843 253.307C255.843 262.963 260.44 271.57 267.566 277Z" fill="#F8F8F8"/>
<path d="M160.956 283.157H19.6957C8.82009 283.157 0.00567627 274.339 0.00567627 263.467V243.12C0.00567627 232.244 8.82009 223.43 19.6957 223.43H160.956C152.707 223.43 145.246 226.773 139.837 232.177C134.433 237.577 131.09 245.047 131.09 253.296C131.09 269.789 144.463 283.157 160.956 283.157Z" fill="#66D5F2"/>
<path d="M121.863 202.312V232.049C121.863 233.999 119.53 235.002 118.115 233.66L109.878 225.848C109.022 225.036 107.679 225.036 106.823 225.848L98.5858 233.66C97.1709 235.002 94.8379 233.999 94.8379 232.049V202.312H121.863Z" fill="#B378E1"/>
<path d="M129.925 204.618H86.7649C85.4877 204.618 84.4512 203.581 84.4512 202.304C84.4512 201.027 85.4877 199.99 86.7649 199.99H129.925C131.202 199.99 132.238 201.027 132.238 202.304C132.238 203.581 131.202 204.618 129.925 204.618Z" fill="#F5F5FC"/>
<path opacity="0.4" d="M43.8415 141.298C43.8415 143.339 42.1871 144.994 40.1457 144.994H26.1912C24.1504 144.994 22.4954 143.339 22.4954 141.298C22.4954 139.257 24.1499 137.602 26.1912 137.602H40.1463C42.1871 137.603 43.8415 139.257 43.8415 141.298Z" fill="#F8F8F8"/>
</svg>
