<svg width="290" height="291" viewBox="0 0 290 291" fill="none" xmlns="http://www.w3.org/2000/svg">
<path d="M154.062 73.4622V54.875H163.125C165.529 54.875 167.834 53.9202 169.533 52.2207C171.233 50.5211 172.188 48.216 172.188 45.8125C172.188 43.409 171.233 41.1039 169.533 39.4043C167.834 37.7048 165.529 36.75 163.125 36.75H126.875C124.471 36.75 122.166 37.7048 120.467 39.4043C118.767 41.1039 117.812 43.409 117.812 45.8125C117.812 48.216 118.767 50.5211 120.467 52.2207C122.166 53.9202 124.471 54.875 126.875 54.875H135.938V73.4622C108.781 75.754 83.4725 88.1504 65.0144 108.201C46.5563 128.251 36.2919 154.497 36.25 181.75V208.938C36.25 211.341 37.2048 213.646 38.9043 215.346C40.6039 217.045 42.909 218 45.3125 218H244.688C247.091 218 249.396 217.045 251.096 215.346C252.795 213.646 253.75 211.341 253.75 208.938V181.75C253.708 154.497 243.444 128.251 224.986 108.201C206.527 88.1504 181.219 75.754 154.062 73.4622ZM235.625 199.875H54.375V181.75C54.375 157.715 63.923 134.664 80.9184 117.668C97.9139 100.673 120.965 91.125 145 91.125C169.035 91.125 192.086 100.673 209.082 117.668C226.077 134.664 235.625 157.715 235.625 181.75V199.875Z" fill="#C1C1C1"/>
<path d="M250 175C250 217 265 225 148.779 203C29.8329 218.453 40.5 227.449 40.5 175C40.5 126.443 90 74.0002 144.259 76.0002C198 73.5002 250 123.961 250 175Z" fill="#D9D9D9"/>
<path d="M244.688 199.875H45.3125C38.1019 199.875 31.1867 202.739 26.088 207.838C20.9894 212.937 18.125 219.852 18.125 227.062C18.125 234.273 20.9894 241.188 26.088 246.287C31.1867 251.386 38.1019 254.25 45.3125 254.25H244.688C251.898 254.25 258.813 251.386 263.912 246.287C269.011 241.188 271.875 234.273 271.875 227.062C271.875 219.852 269.011 212.937 263.912 207.838C258.813 202.739 251.898 199.875 244.688 199.875Z" fill="#B378E1"/>
<path d="M246.5 220H191.5C189.511 220 187.603 220.737 186.197 222.05C184.79 223.363 184 225.143 184 227C184 228.857 184.79 230.637 186.197 231.95C187.603 233.263 189.511 234 191.5 234H246.5C248.489 234 250.397 233.263 251.803 231.95C253.21 230.637 254 228.857 254 227C254 225.143 253.21 223.363 251.803 222.05C250.397 220.737 248.489 220 246.5 220Z" fill="#CE94FB"/>
<path d="M102.179 184H66.8214C65.5427 184 64.3164 184.316 63.4122 184.879C62.508 185.441 62 186.204 62 187C62 187.796 62.508 188.559 63.4122 189.121C64.3164 189.684 65.5427 190 66.8214 190H102.179C103.457 190 104.684 189.684 105.588 189.121C106.492 188.559 107 187.796 107 187C107 186.204 106.492 185.441 105.588 184.879C104.684 184.316 103.457 184 102.179 184Z" fill="#F0F0F0"/>
<path d="M240.5 176.5C240.5 197 93 190 179.5 182.5C236.766 177.535 236.57 161.707 208 120.5C182 83 117.337 85 150.337 83C194.257 80.3383 247.5 132 240.5 176.5Z" fill="#F0F0F0"/>
</svg>
