<svg width="291" height="291" viewBox="0 0 291 291" fill="none" xmlns="http://www.w3.org/2000/svg">
<path opacity="0.19" d="M73.9197 257.737C72.396 260.8 71.8332 264.573 69.3441 266.816C66.855 269.059 62.8559 269.195 60.6505 271.846C57.9052 275.157 59.6668 280.751 63.0939 283.236C66.521 285.722 70.9181 285.965 75.0636 286.121L187.65 290.388C195.497 290.684 204.045 290.757 210.29 285.713C217.927 279.551 218.984 266.131 212.395 258.722C215.74 258.421 219.222 258.067 222.091 256.212C224.959 254.357 226.977 250.507 225.783 247.176C224.269 242.967 219.08 242.132 214.834 242.049C186.676 241.501 159.785 248.07 131.929 249.585C116.596 250.41 82.9702 239.534 73.9197 257.737Z" fill="url(#paint0_linear_34_277)"/>
<path opacity="0.18" d="M120.778 4.06895C143.107 -2.9906 168.822 0.233294 187.184 15.474C203.875 29.3552 212.807 51.0679 226.666 68.1196C240.187 84.7731 258.238 96.7656 271.607 113.56C284.977 130.354 293.044 155.369 282.369 174.207C274.545 188.011 257.775 196.76 256.243 212.782C255.785 217.817 256.961 222.867 256.952 227.926C256.906 248.463 237.167 263.262 218.105 266.826C199.043 270.39 179.373 266.52 160.156 268.86C143.226 270.919 127.042 277.741 110.131 280.1C93.2195 282.46 73.9838 279.236 63.2357 265.185C55.1095 254.562 53.4303 239.938 47.0016 228.096C33.5265 203.251 -0.584411 189.229 0.53203 160.607C1.35563 139.842 21.0398 126.543 31.7237 109.142C44.9243 87.6038 45.5969 61.8466 63.6796 43.7996C79.6254 27.85 99.3873 10.8275 120.778 4.06895Z" fill="#68E1FD"/>
<path d="M197.996 262.607L181.318 274.798C178.815 269.661 188.035 259.99 188.035 259.99C188.035 259.99 173.85 236.272 168.318 220.424C164.104 208.402 162.37 195.929 155.758 196.031C153.658 196.065 151.068 197.366 147.747 200.352C133.956 212.733 138.298 254.78 138.298 254.78L134.18 257.256L117.63 267.161L116.93 262.932C116.271 253.454 128.397 248.954 128.397 248.954C128.397 248.954 126.983 228.333 128.397 207.684C129.81 187.034 136.633 169.478 136.633 169.478L173.397 178.319L178.76 179.606C178.458 220.079 197.675 261.951 197.991 262.597L197.996 262.607Z" fill="#3F3D56"/>
<path d="M197.991 262.597C174.166 236.005 173.384 178.319 173.384 178.319L178.746 179.606C178.458 220.079 197.675 261.951 197.991 262.597ZM155.758 196.031C153.658 196.065 151.068 197.366 147.747 200.352C133.956 212.733 138.298 254.78 138.298 254.78L134.18 257.256C130.73 235.223 130.52 216.278 141.121 201.168C145.299 195.172 155.122 195.958 155.758 196.031Z" fill="#25233A"/>
<path opacity="0.57" fill-rule="evenodd" clip-rule="evenodd" d="M123.153 130.092C115.772 128.242 107.115 125.047 105.249 117.225C104.277 113.141 117.514 114.808 127.629 116.082C133.565 116.829 138.426 117.442 138.71 116.677C141.781 108.435 148.725 111.619 156.81 115.326C162.528 117.948 168.817 120.831 174.71 120.119C180.622 119.41 195.218 118.993 201.07 120.119C201.212 120.147 201.676 120.212 202.322 120.303C204.704 120.637 209.563 121.319 209.883 121.77C209.886 121.774 209.889 121.778 209.891 121.782C223.715 124.729 236.659 131.536 247.32 141.643C256.613 150.523 264.222 164.185 259.885 176.634C257.711 182.878 252.912 187.607 248.249 192.064C238.86 201.047 229.073 210.136 217.176 214.675C208.492 217.987 199.149 218.691 189.943 219.273C159.811 221.177 129.664 222.097 99.5017 222.036C79.4699 221.997 57.3927 220.676 42.9247 205.975C35.6679 198.6 31.1106 186.962 34.9449 177.11C37.6537 170.172 43.8627 165.526 50.0764 161.918C63.404 154.209 78.061 149.435 93.1691 147.882C93.9227 147.804 94.8891 147.666 95.9892 147.509C101.034 146.788 108.89 145.666 111.929 148.153C116.01 151.494 113.617 158.631 109.957 161.505C106.797 163.985 102.939 164.934 99.0647 165.887C97.2505 166.333 95.4328 166.78 93.6816 167.385C89.6564 168.802 85.9467 171.078 82.7804 174.072C79.6142 177.066 77.0582 180.716 75.2695 184.796C74.1576 187.389 73.3615 190.346 74.1805 193.05C75.2832 196.711 78.9071 198.731 82.2838 200.11C98.2618 206.64 115.777 207.329 132.894 207.198C161.263 207.004 190.496 204.523 215.822 190.957C226.744 185.107 237.776 175.192 237.611 162.209C237.492 152.499 230.88 144.07 223.161 138.846C218.185 135.478 212.712 133.114 207.224 130.77C207.22 130.769 207.215 130.768 207.211 130.767C197.03 127.776 184.09 128.286 175.671 129.956C156.934 133.675 141.702 134.738 123.153 130.092Z" fill="white"/>
<path d="M200.389 140.652L188.035 141.652L186.58 133.787C185.564 131.422 188.035 141.652 181.318 180.227L177.447 179.295L136.619 169.478L146.525 114.128L129.261 112.89L132.181 95.6729L140.769 96.4497C140.769 96.4497 156.202 94.7406 167.696 96.4497C179.19 98.1587 187.298 98.5909 192.747 104.543C198.197 110.496 200.389 140.652 200.389 140.652Z" fill="#B378E1"/>
<path d="M186.58 133.787C185.564 131.422 188.035 141.652 181.318 180.227L177.447 179.295L173.384 178.324C173.384 178.324 177.671 167.642 175.264 165.7C172.857 163.758 161.02 168.463 150.414 169.483C139.808 170.502 141.158 167.361 141.158 167.361C141.158 167.361 150.858 158 167.28 152.926C183.701 147.852 184.479 121.716 184.479 121.716L186.58 133.787Z" fill="url(#paint1_linear_34_277)"/>
<path d="M161.29 99.0084C161.29 99.0084 171.649 99.4648 175.511 96.1875L178.746 98.1005C178.746 98.1005 177.863 104.674 172.798 105.548C167.733 106.422 161.281 106.126 161.29 99.0084Z" fill="#B378E1"/>
<path d="M161.29 99.0084C161.29 99.0084 171.649 99.4648 175.511 96.1875L178.746 98.1005C178.746 98.1005 177.863 104.674 172.798 105.548C167.733 106.422 161.281 106.126 161.29 99.0084Z" fill="url(#paint2_linear_34_277)"/>
<path d="M152.208 154.504L141.57 150.732C141.57 150.732 140.316 151.61 142.178 153.067C142.968 153.702 143.722 154.385 144.438 155.111L152.208 154.504Z" fill="url(#paint3_linear_34_277)"/>
<path d="M162.022 94.3231C162.256 92.381 162.347 90.2301 163.523 88.6958C164.25 87.8634 165.119 87.1861 166.086 86.7003L173.832 82.1364C174.775 81.5829 175.799 81.0099 176.866 81.1653C177.125 81.1887 177.372 81.2897 177.579 81.4566C178.096 81.9082 178.014 82.7627 177.886 83.4667C177.099 87.7102 176.307 91.9537 175.511 96.1972C175.336 97.4011 175.012 98.575 174.546 99.6881C173.905 100.943 172.946 101.982 171.778 102.687C170.609 103.392 169.277 103.736 167.934 103.679C165.738 103.547 163.674 102.521 162.173 100.815C160.435 98.8773 161.739 96.7264 162.022 94.3231Z" fill="url(#paint4_linear_34_277)"/>
<path d="M187.234 158.243C188.744 158.014 190.205 157.504 191.549 156.738C194.23 155.213 198.526 152.494 199.364 150.329C200.595 147.129 200.389 140.652 200.389 140.652L188.035 141.652C188.035 141.652 188.14 145.794 187.119 145.939C186.099 146.085 153.292 154.8 153.292 154.8C153.292 154.8 148.218 153.057 143.766 154.873C139.314 156.689 132.752 160.913 134.423 163.127C134.677 163.454 134.996 163.719 135.356 163.903C135.716 164.087 136.109 164.187 136.509 164.195C137.955 164.244 137.388 166.035 138.257 166.715C139.419 167.623 150.968 168.56 154.921 164.205C155.932 163.098 179.872 159.369 187.234 158.243Z" fill="url(#paint5_linear_34_277)"/>
<path d="M132.18 95.668L130.131 107.733C128.155 106.229 126.08 104.877 123.922 103.689C120.289 101.689 111.801 76.4994 111.801 76.4994C111.801 76.4994 110.909 71.9986 108.241 70.4692C105.574 68.9398 105.706 63.9971 105.706 62.3949C105.706 60.7975 104.334 58.331 102.993 56.3743C101.652 54.4177 102.993 53.3932 102.993 53.3932C102.993 53.3932 106.457 56.8793 106.521 56.4472C106.585 56.015 104.791 51.2423 103.775 50.0431C102.76 48.8438 102.819 46.858 103.368 46.5667C103.917 46.2754 109.316 53.7574 109.316 53.7574C109.147 51.8797 108.707 50.0408 108.012 48.3049C106.919 45.7656 107.193 42.9301 108.012 43.3671C108.831 43.8041 112.258 52.1066 112.258 50.5189C112.258 48.9312 109.513 40.755 111.709 41.624C112.528 41.9494 113.421 43.6341 114.313 46.2171C115.8 50.5432 117.273 57.3842 118.339 64.5943C120.055 76.077 132.18 95.668 132.18 95.668Z" fill="url(#paint6_linear_34_277)"/>
<path d="M115.567 57.2386C115.567 57.2386 113.242 54.3837 111.526 54.7576C109.811 55.1314 111.87 58.1077 111.87 58.1077C111.87 58.1077 113.306 60.7247 112.624 62.5406C111.943 64.3564 111.462 68.4251 111.664 68.5708C111.865 68.7164 110.158 70.3915 108.31 66.1043C107.705 64.6827 106.818 63.4159 105.711 62.39C105.711 60.7927 104.338 58.3262 102.997 56.3695C101.657 54.4128 102.997 53.3884 102.997 53.3884C102.997 53.3884 106.461 56.8745 106.525 56.4423C106.589 56.0102 104.796 51.2375 103.78 50.0383C102.764 48.839 102.824 46.8532 103.373 46.5619C103.922 46.2706 109.321 53.7525 109.321 53.7525C109.152 51.8749 108.712 50.036 108.017 48.3001C106.923 45.7608 107.198 42.9253 108.017 43.3623C108.836 43.7992 112.263 52.1017 112.263 50.5141C112.263 48.9264 109.518 40.7501 111.714 41.6192C112.533 41.9445 113.425 43.6293 114.317 46.2123C114.336 46.2123 115.772 54.039 115.567 57.2386Z" fill="url(#paint7_linear_34_277)"/>
<path d="M181.565 72.6395C181.325 74.2777 180.922 75.8841 180.361 77.4316C180.513 77.4219 180.664 77.4577 180.798 77.535C180.931 77.6123 181.042 77.7279 181.116 77.8686C181.986 79.4077 179.954 84.5592 177.3 83.9765C175.822 86.5838 174.134 89.128 171.842 90.9535C166.708 95.0417 158.783 94.4833 154.207 89.7252C150.835 86.2245 149.394 81.0245 149.421 76.0188C149.453 70.1924 150.931 60.9335 154.39 56.151C157.849 51.3686 165.23 53.2087 169.769 54.8547C173.278 56.1267 176.82 57.8698 179.094 60.9771C181.459 64.2108 182.118 68.5902 181.565 72.6395Z" fill="url(#paint8_linear_34_277)"/>
<path d="M130.131 107.733H141.698C142.427 107.733 143.147 107.903 143.807 108.233C144.466 108.563 145.049 109.043 145.513 109.64C145.977 110.237 146.311 110.935 146.491 111.685C146.67 112.435 146.691 113.218 146.552 113.977L146.525 114.137L129.261 112.899L130.131 107.733Z" fill="url(#paint9_linear_34_277)"/>
<defs>
<linearGradient id="paint0_linear_34_277" x1="59.3236" y1="266.258" x2="226.149" y2="266.258" gradientUnits="userSpaceOnUse">
<stop stop-color="#183866"/>
<stop offset="1" stop-color="#1A7FC1"/>
</linearGradient>
<linearGradient id="paint1_linear_34_277" x1="200.713" y1="164.943" x2="126.537" y2="130.432" gradientUnits="userSpaceOnUse">
<stop offset="0.01"/>
<stop offset="0.15" stop-opacity="0.48"/>
<stop offset="0.99" stop-opacity="0"/>
</linearGradient>
<linearGradient id="paint2_linear_34_277" x1="188.437" y1="104.699" x2="159.123" y2="99.0637" gradientUnits="userSpaceOnUse">
<stop offset="0.01"/>
<stop offset="0.99" stop-opacity="0"/>
</linearGradient>
<linearGradient id="paint3_linear_34_277" x1="146.616" y1="152.907" x2="145.091" y2="154.394" gradientUnits="userSpaceOnUse">
<stop stop-color="#ECC4D7"/>
<stop offset="0.42" stop-color="#EFD4D1"/>
<stop offset="1" stop-color="#F2EAC9"/>
</linearGradient>
<linearGradient id="paint4_linear_34_277" x1="170.268" y1="91.6624" x2="176.416" y2="99.2142" gradientUnits="userSpaceOnUse">
<stop stop-color="#ECC4D7"/>
<stop offset="0.83" stop-color="#F2EAC9"/>
</linearGradient>
<linearGradient id="paint5_linear_34_277" x1="134.162" y1="154.067" x2="200.402" y2="154.067" gradientUnits="userSpaceOnUse">
<stop stop-color="#ECC4D7"/>
<stop offset="0.42" stop-color="#EFD4D1"/>
<stop offset="1" stop-color="#F2EAC9"/>
</linearGradient>
<linearGradient id="paint6_linear_34_277" x1="102.398" y1="74.6447" x2="132.18" y2="74.6447" gradientUnits="userSpaceOnUse">
<stop stop-color="#ECC4D7"/>
<stop offset="0.42" stop-color="#EFD4D1"/>
<stop offset="1" stop-color="#F2EAC9"/>
</linearGradient>
<linearGradient id="paint7_linear_34_277" x1="102.398" y1="55.2819" x2="115.589" y2="55.2819" gradientUnits="userSpaceOnUse">
<stop stop-color="#ECC4D7"/>
<stop offset="0.42" stop-color="#EFD4D1"/>
<stop offset="1" stop-color="#F2EAC9"/>
</linearGradient>
<linearGradient id="paint8_linear_34_277" x1="180.05" y1="62.4968" x2="148.417" y2="80.4242" gradientUnits="userSpaceOnUse">
<stop stop-color="#ECC4D7"/>
<stop offset="0.83" stop-color="#F2EAC9"/>
</linearGradient>
<linearGradient id="paint9_linear_34_277" x1="140.568" y1="123.348" x2="135.374" y2="104.397" gradientUnits="userSpaceOnUse">
<stop offset="0.01"/>
<stop offset="0.99" stop-opacity="0"/>
</linearGradient>
</defs>
</svg>
